<?xml version="1.0" encoding="UTF-8"?>
<svg version="1.1" xmlns="http://www.w3.org/2000/svg" width="834" height="1024">
<path d="M0 0 C1.19404449 0.00182281 2.38808899 0.00364563 3.61831665 0.00552368 C20.74886357 0.04958321 37.51402438 0.4357898 54.4375 3.3125 C55.51741211 3.48410645 56.59732422 3.65571289 57.70996094 3.83251953 C93.23830987 9.52988589 127.15733155 20.43085299 159.4375 36.3125 C160.39994629 36.78413574 161.36239258 37.25577148 162.35400391 37.74169922 C187.371087 50.11407342 210.08941233 65.3849929 231.4375 83.3125 C232.92830078 84.52486328 232.92830078 84.52486328 234.44921875 85.76171875 C242.28714793 92.21585781 249.55635241 99.21791518 256.75 106.375 C257.66885986 107.28467529 258.58771973 108.19435059 259.53442383 109.1315918 C265.59489485 115.21942386 271.08111968 121.60291455 276.4375 128.3125 C277.3010968 129.33987477 278.16950816 130.36326567 279.046875 131.37890625 C319.25766672 178.26703747 344.50098324 237.57151342 355.1875 298.0625 C355.38641846 299.185354 355.58533691 300.30820801 355.7902832 301.46508789 C358.99878517 320.60185443 359.81286816 339.49395635 359.75 358.875 C359.74784485 360.07037384 359.7456897 361.26574768 359.74346924 362.49734497 C359.69389288 379.62253934 359.37832404 396.40210122 356.4375 413.3125 C356.23882324 414.51132812 356.04014648 415.71015625 355.83544922 416.9453125 C347.55865162 466.04811173 330.02751207 513.69162694 302.4375 555.3125 C301.70926025 556.4250415 301.70926025 556.4250415 300.96630859 557.56005859 C291.21666948 572.40742764 280.36783997 586.12642385 268.35546875 599.2109375 C266.62633418 601.10559004 264.96740707 603.04079012 263.3125 605 C259.71489104 609.12840372 255.8626101 612.99675755 252 616.875 C251.37915527 617.50043701 250.75831055 618.12587402 250.11865234 618.77026367 C245.7221569 623.15236891 241.15582334 627.28052025 236.4375 631.3125 C235.80980713 631.85221436 235.18211426 632.39192871 234.53540039 632.94799805 C169.53678827 688.46607558 86.31110407 718.92730473 0.9375 718.625 C-0.1615567 718.62284485 -1.2606134 718.6206897 -2.39297485 718.61846924 C-19.28749946 718.56541076 -35.86101356 718.08455145 -52.5625 715.3125 C-54.41681641 715.00650879 -54.41681641 715.00650879 -56.30859375 714.69433594 C-81.0917737 710.47579168 -104.97102855 703.98467219 -128.5625 695.3125 C-128.82546875 696.0446875 -129.0884375 696.776875 -129.359375 697.53125 C-130.57741926 700.34698869 -131.94989026 702.38300903 -133.8125 704.8125 C-137.62971094 709.95654897 -141.21434144 715.22147483 -144.75 720.5625 C-150.65698064 729.47285141 -156.62422435 738.34020432 -162.625 747.1875 C-163.06935394 747.84278687 -163.51370789 748.49807373 -163.9715271 749.17321777 C-166.25547287 752.54123799 -168.53993676 755.90890625 -170.82470703 759.27636719 C-174.80529048 765.14381044 -178.7810464 771.0145233 -182.75704956 776.8850708 C-184.94199078 780.11102207 -187.12726253 783.33674941 -189.3125 786.5625 C-190.18750157 787.8541656 -191.06250157 789.14583227 -191.9375 790.4375 C-200.6875 803.35416667 -209.4375 816.27083333 -218.1875 829.1875 C-218.62063507 829.82689011 -219.05377014 830.46628021 -219.50003052 831.12504578 C-220.37492789 832.41656046 -221.24982617 833.70807454 -222.12472534 834.99958801 C-224.31380289 838.23107495 -226.50286474 841.46257251 -228.69189453 844.6940918 C-232.61054052 850.47889615 -236.52928853 856.26363123 -240.44863892 862.04795837 C-242.61167159 865.24025208 -244.77461017 868.43260952 -246.9375 871.625 C-247.36673767 872.25854401 -247.79597534 872.89208801 -248.23822021 873.54483032 C-254.7371255 883.13747486 -261.23039703 892.73391858 -267.72131348 902.33197021 C-275.2019504 913.39348483 -282.6875786 924.45155023 -290.1875 935.5 C-290.95630822 936.63272474 -291.72510706 937.76545586 -292.49389648 938.89819336 C-295.71719292 943.64730858 -298.94051288 948.39640763 -302.16455078 953.14501953 C-303.96029643 955.78999592 -305.75499512 958.43567874 -307.54907227 961.08178711 C-309.33383469 963.713898 -311.12244697 966.34333059 -312.91381836 968.97094727 C-317.0643049 975.06965773 -321.15236519 981.19348125 -325.09375 987.4296875 C-325.79927002 988.5321582 -326.50479004 989.63462891 -327.23168945 990.77050781 C-328.52922323 992.80650734 -329.80810747 994.85457871 -331.06323242 996.91699219 C-336.09301651 1004.76326012 -341.86740004 1008.02605884 -350.6875 1010.625 C-379.18903077 1015.74831181 -410.20444993 1003.36314458 -433.36206055 987.50244141 C-439.84192399 982.89896551 -445.81989702 977.80455312 -451.5625 972.3125 C-452.27019531 971.66796875 -452.97789062 971.0234375 -453.70703125 970.359375 C-462.02513277 962.53431583 -470.94610222 950.19099885 -471.765625 938.38671875 C-471.92018328 927.21988325 -471.92018328 927.21988325 -468.5625 922.3125 C-467.9025 921.3225 -467.2425 920.3325 -466.5625 919.3125 C-465.9025 919.3125 -465.2425 919.3125 -464.5625 919.3125 C-464.33433594 918.62800781 -464.10617187 917.94351563 -463.87109375 917.23828125 C-462.25087531 913.61576302 -460.01244643 910.63850676 -457.625 907.5 C-453.72443317 902.27805597 -449.92110041 897.01086394 -446.25 891.625 C-442.12171715 885.57677574 -437.95363069 879.55864199 -433.75 873.5625 C-433.16114014 872.72243408 -432.57228027 871.88236816 -431.96557617 871.0168457 C-430.76417417 869.30342421 -429.5625945 867.59012729 -428.36083984 865.87695312 C-425.42525016 861.69076875 -422.49406391 857.50150408 -419.5625 853.3125 C-418.39585519 851.64581803 -417.2291885 849.97915138 -416.0625 848.3125 C-415.485 847.4875 -414.9075 846.6625 -414.3125 845.8125 C-348.6875 752.0625 -348.6875 752.0625 -283.0625 658.3125 C-282.4842749 657.48645264 -281.9060498 656.66040527 -281.31030273 655.80932617 C-280.15100404 654.15320831 -278.99166203 652.49712075 -277.83227539 650.84106445 C-274.8025115 646.51325675 -271.77364317 642.18482595 -268.74609375 637.85546875 C-268.11896484 636.95892578 -267.49183594 636.06238281 -266.84570312 635.13867188 C-265.65271391 633.43313915 -264.45998732 631.72742267 -263.26757812 630.02148438 C-260.0577996 625.43336679 -256.82514345 620.8631889 -253.5625 616.3125 C-254.97988489 613.06042908 -256.68776412 610.99888933 -259.25 608.5625 C-263.25474273 604.65105772 -266.93074931 600.56891181 -270.5625 596.3125 C-271.35140625 595.41273438 -272.1403125 594.51296875 -272.953125 593.5859375 C-321.08339607 538.28331231 -349.11531824 468.761124 -357.5625 396.3125 C-357.6670752 395.44222168 -357.77165039 394.57194336 -357.87939453 393.67529297 C-359.00711478 382.6058815 -358.80648285 371.42658414 -358.8125 360.3125 C-358.81317474 359.19479218 -358.81384949 358.07708435 -358.81454468 356.92550659 C-358.7981891 339.86450273 -358.28107243 323.18886716 -355.5625 306.3125 C-355.39089355 305.21115723 -355.21928711 304.10981445 -355.04248047 302.97509766 C-341.91565536 220.70662181 -299.4782159 139.74921736 -234.5625 86.3125 C-233.78390625 85.65636719 -233.0053125 85.00023438 -232.203125 84.32421875 C-182.82079635 43.19662847 -124.09719424 15.74256143 -60.8125 4.5625 C-59.689646 4.36358154 -58.56679199 4.16466309 -57.40991211 3.9597168 C-38.27280681 0.75115804 -19.38128523 -0.06137522 0 0 Z M-126.5625 69.3125 C-127.55459473 69.75577637 -128.54668945 70.19905273 -129.56884766 70.65576172 C-157.24018025 83.14982718 -182.8562247 99.11114132 -205.5625 119.3125 C-206.65582642 120.27663818 -206.65582642 120.27663818 -207.77124023 121.26025391 C-214.26384408 127.03359228 -220.48015197 133.04693409 -226.625 139.1875 C-227.55376953 140.10402344 -228.48253906 141.02054687 -229.43945312 141.96484375 C-235.58622327 148.09867332 -241.20862635 154.47746023 -246.5625 161.3125 C-247.11156006 162.01294434 -247.66062012 162.71338867 -248.22631836 163.43505859 C-285.20334775 211.23773952 -308.01396991 267.17478767 -314.5625 327.3125 C-314.65821289 328.18326172 -314.75392578 329.05402344 -314.85253906 329.95117188 C-322.05568058 404.35781648 -301.45469023 481.7890859 -257.5625 542.3125 C-256.42361328 543.89417969 -256.42361328 543.89417969 -255.26171875 545.5078125 C-249.70184466 553.07240141 -243.71145417 560.22656233 -237.5625 567.3125 C-236.88058594 568.10785156 -236.19867188 568.90320313 -235.49609375 569.72265625 C-224.55608377 582.20411577 -212.73152758 594.1943615 -199.5625 604.3125 C-198.05816406 605.54226563 -198.05816406 605.54226563 -196.5234375 606.796875 C-181.67571838 618.89805426 -165.51144489 629.40422571 -148.5625 638.3125 C-147.94697266 638.63879395 -147.33144531 638.96508789 -146.69726562 639.30126953 C-72.04539532 678.59685957 15.33424923 686.11047299 95.8125 661.1484375 C133.3229505 649.09518231 168.32564725 630.66879998 198.80761719 605.64990234 C199.87402773 604.77485786 200.94484667 603.90515164 202.02050781 603.04150391 C210.60049505 596.13882733 218.4494499 588.50770107 226.25 580.75 C226.73814178 580.26712524 227.22628357 579.78425049 227.72921753 579.28674316 C234.42740998 572.64450876 240.59963667 565.72585215 246.4375 558.3125 C247.00122314 557.60810791 247.56494629 556.90371582 248.14575195 556.17797852 C262.26319253 538.45316561 274.13792477 519.48446245 284.4375 499.3125 C284.86627441 498.47654297 285.29504883 497.64058594 285.73681641 496.77929688 C302.01123459 464.49715015 311.67832456 428.15572047 315.4375 392.3125 C315.57889404 391.04007446 315.57889404 391.04007446 315.72314453 389.74194336 C323.82536741 307.4224893 298.49274551 223.7226088 246.08666992 159.84765625 C241.67738097 154.53765902 237.11862576 149.38439799 232.4375 144.3125 C231.53136355 143.30445253 230.62648141 142.29527657 229.72265625 141.28515625 C225.21050018 136.26318716 220.68328332 131.40429248 215.49609375 127.0625 C213.08713541 125.01465685 210.80562567 122.85097431 208.5 120.6875 C166.37554198 82.39253817 111.71754493 57.66375743 56.0625 47.5 C54.99523682 47.30494873 53.92797363 47.10989746 52.82836914 46.90893555 C35.55999429 43.94703755 18.37294651 42.928501 0.875 43 C-0.08294464 43.00215515 -1.04088928 43.0043103 -2.02786255 43.00653076 C-44.99041322 43.16087494 -87.27630228 51.66138699 -126.5625 69.3125 Z " fill="#99AADD" transform="translate(474.5625,-0.31250000000000006)"/>
<path d="M0 0 C1.37628051 0.00504701 2.75256235 0.00974304 4.12884521 0.01409912 C23.64704985 0.08516725 42.91692481 0.43724533 62.25 3.375 C63.68665168 3.58666023 65.1233398 3.79807315 66.56005859 4.00927734 C85.9881684 6.89825668 105.2179297 10.48138927 124.25 15.375 C125.26497559 15.63361816 126.27995117 15.89223633 127.32568359 16.15869141 C170.91261315 27.41159364 215.80554144 44.57948677 250.25 74.375 C251.09046875 75.08140625 251.9309375 75.7878125 252.796875 76.515625 C266.63941656 88.46663915 280.17850675 104.74116982 281.6640625 123.67578125 C282.31999251 137.69926678 278.81479621 148.86578064 269.25 159.375 C268.67765625 160.03886719 268.1053125 160.70273438 267.515625 161.38671875 C240.36556068 190.91531435 190.10639299 197.88385173 152.25 200.375 C148.00490306 200.52327795 143.76309076 200.56121108 139.515625 200.578125 C137.73985329 200.58871445 137.73985329 200.58871445 135.9282074 200.59951782 C86.36725863 200.82779625 86.36725863 200.82779625 62.25 197.375 C61.18504303 197.22581116 61.18504303 197.22581116 60.09857178 197.0736084 C17.69964224 191.12356529 -23.15176789 180.79716402 -62.75 164.375 C-64.26027584 163.76397471 -65.77067338 163.15325005 -67.28125 162.54296875 C-101.63957231 148.38044963 -140.66079191 124.38844065 -155.6875 88.9375 C-160.14432471 76.3979593 -159.48301191 64.34935695 -154.0625 52.25 C-141.42655053 29.30577597 -114.87939362 17.57871087 -90.79077148 10.51000977 C-60.98373789 2.18557342 -30.83351947 -0.1882999 0 0 Z " fill="#DBDBEE" transform="translate(464.75,94.625)"/>
</svg>
