<?xml version="1.0" encoding="UTF-8"?>
<svg version="1.1" xmlns="http://www.w3.org/2000/svg" width="682" height="750">
<path d="M0 0 C1.2193499 -0.01058945 1.2193499 -0.01058945 2.46333313 -0.02139282 C65.33673581 -0.44306791 123.62723276 18.11063169 171.1796875 60.203125 C172.07300781 60.98558594 172.96632813 61.76804688 173.88671875 62.57421875 C183.18058093 70.81163577 191.49071341 79.44554367 199.1796875 89.203125 C200.36884766 90.68425781 200.36884766 90.68425781 201.58203125 92.1953125 C241.51573873 142.79062592 258.96121519 207.23504653 251.58642578 271.10839844 C245.52465832 317.23022577 227.11736365 358.96700841 198.1796875 395.203125 C199.89671461 398.75708334 201.3304291 401.48337835 204.1796875 404.203125 C204.5096875 405.193125 204.8396875 406.183125 205.1796875 407.203125 C206.88129061 408.35324593 206.88129061 408.35324593 208.99609375 409.24609375 C209.75986328 409.59736328 210.52363281 409.94863281 211.31054688 410.31054688 C212.11298828 410.66697266 212.91542969 411.02339844 213.7421875 411.390625 C214.95165039 411.94266602 214.95165039 411.94266602 216.18554688 412.50585938 C218.17955048 413.41436989 220.17745708 414.31292836 222.1796875 415.203125 C220.65396094 418.52948382 219.24624246 420.15875502 216.1796875 422.203125 C217.59888242 426.66345188 220.04585225 429.53164916 223.2421875 432.828125 C226.85835096 436.65696921 230.32562123 440.5231529 233.6171875 444.640625 C236.98315015 448.82549807 240.51144767 452.78626898 244.1796875 456.703125 C248.63840945 461.46403834 252.81766374 466.36780063 256.90234375 471.45703125 C259.3979514 474.46631458 262.01732231 477.34252786 264.6796875 480.203125 C268.13130686 483.91174188 271.44490898 487.68818395 274.6171875 491.640625 C277.98315015 495.82549807 281.51144767 499.78626898 285.1796875 503.703125 C289.63840945 508.46403834 293.81766374 513.36780063 297.90234375 518.45703125 C300.39795219 521.46631552 303.01733893 524.34251154 305.6796875 527.203125 C309.94889529 531.79069939 313.93727489 536.53755504 317.8671875 541.421875 C320.82145114 544.97497586 323.94882174 548.3433618 327.09594727 551.72485352 C330.06684378 554.9361155 332.87929827 558.22940315 335.6171875 561.640625 C338.98315015 565.82549807 342.51144767 569.78626898 346.1796875 573.703125 C350.63840945 578.46403834 354.81766374 583.36780063 358.90234375 588.45703125 C361.39795219 591.46631552 364.01733893 594.34251154 366.6796875 597.203125 C370.94889529 601.79069939 374.93727489 606.53755504 378.8671875 611.421875 C381.37940006 614.44331984 384.00372838 617.32750883 386.6796875 620.203125 C390.97702646 624.82198291 395.00739857 629.59532663 398.96484375 634.51171875 C402.55529556 638.87471927 406.36028491 643.04060823 410.1796875 647.203125 C413.27990071 645.67951594 416.23130979 644.00491138 419.1796875 642.203125 C422.34463599 649.88958438 425.19048618 657.66830394 427.9296875 665.515625 C428.34089844 666.66869141 428.75210938 667.82175781 429.17578125 669.00976562 C429.56378906 670.12158203 429.95179688 671.23339844 430.3515625 672.37890625 C430.7031543 673.37833252 431.05474609 674.37775879 431.41699219 675.4074707 C432.18427536 678.21994178 432.52992861 680.31097788 432.1796875 683.203125 C431.0690918 684.82128906 431.0690918 684.82128906 429.50390625 686.21875 C428.64140259 687.00487671 428.64140259 687.00487671 427.76147461 687.80688477 C427.13635986 688.35014404 426.51124512 688.89340332 425.8671875 689.453125 C425.2285376 690.02667725 424.5898877 690.60022949 423.93188477 691.19116211 C419.39069817 695.23791561 414.7057672 699.09414785 409.95703125 702.89453125 C406.75525172 705.55592605 403.71742796 708.35783268 400.6796875 711.203125 C395.81689021 715.7553015 390.82981485 720.06975086 385.61328125 724.21875 C383.42475918 726.00329127 381.40853672 727.88057957 379.3671875 729.828125 C376.1796875 732.203125 376.1796875 732.203125 373.45458984 732.07641602 C369.5696796 731.04045926 366.148814 729.43785542 362.59375 727.60546875 C361.89196625 727.25174698 361.1901825 726.89802521 360.46713257 726.53358459 C358.24242393 725.41009976 356.02356353 724.2755784 353.8046875 723.140625 C352.29073809 722.37361127 350.77641871 721.60732735 349.26171875 720.84179688 C345.56337317 718.97065842 341.87022898 717.08960605 338.1796875 715.203125 C338.1796875 712.203125 338.1796875 712.203125 339.4921875 710.81640625 C341.0546875 709.61197917 342.6171875 708.40755208 344.1796875 707.203125 C339.95709293 701.17084705 335.17433158 695.89883822 330.13647461 690.5546875 C326.01821902 686.16437781 322.18470462 681.61415372 318.421875 676.9140625 C315.940622 673.91408065 313.33104443 671.05158849 310.6796875 668.203125 C307.22804696 664.49452965 303.91446456 660.71806423 300.7421875 656.765625 C297.37622485 652.58075193 293.84792733 648.61998102 290.1796875 644.703125 C285.72096555 639.94221166 281.54171126 635.03844937 277.45703125 629.94921875 C274.96142281 626.93993448 272.34203607 624.06373846 269.6796875 621.203125 C265.41047971 616.61555061 261.42210011 611.86869496 257.4921875 606.984375 C254.53792386 603.43127414 251.41055326 600.0628882 248.26342773 596.68139648 C245.29253122 593.4701345 242.48007673 590.17684685 239.7421875 586.765625 C236.37622485 582.58075193 232.84792733 578.61998102 229.1796875 574.703125 C224.72096555 569.94221166 220.54171126 565.03844937 216.45703125 559.94921875 C213.96142281 556.93993448 211.34203607 554.06373846 208.6796875 551.203125 C204.41047971 546.61555061 200.42210011 541.86869496 196.4921875 536.984375 C193.53792386 533.43127414 190.41055326 530.0628882 187.26342773 526.68139648 C184.29253122 523.4701345 181.48007673 520.17684685 178.7421875 516.765625 C174.90352098 511.99304319 170.82169481 507.52196286 166.63671875 503.05688477 C162.61493862 498.74056081 158.87652978 494.26888326 155.21484375 489.640625 C153.01003501 486.99993276 150.64305258 484.60222839 148.1796875 482.203125 C147.2515625 483.04875 146.3234375 483.894375 145.3671875 484.765625 C143.78515625 486.20703125 143.78515625 486.20703125 142.1796875 487.203125 C141.1896875 486.873125 140.1996875 486.543125 139.1796875 486.203125 C137.78440707 482.76443388 136.74677727 479.26481825 135.65625 475.71875 C134.03714033 471.86372697 132.2733687 469.9641523 129.1796875 467.203125 C128.05769345 466.03245441 126.95053724 464.84714629 125.8671875 463.640625 C125.35542969 463.08246094 124.84367187 462.52429688 124.31640625 461.94921875 C123.1796875 460.203125 123.1796875 460.203125 123.1796875 456.203125 C121.50519531 457.0384375 121.50519531 457.0384375 119.796875 457.890625 C61.11111196 486.70878825 -6.14371841 491.48518785 -68.1809082 470.35229492 C-108.16328526 456.25915326 -145.4921032 431.84382332 -172.8203125 399.203125 C-173.26938965 398.67170898 -173.7184668 398.14029297 -174.18115234 397.59277344 C-207.68421034 357.72894133 -229.54175057 305.56857431 -230.8203125 253.203125 C-230.8510083 251.98737793 -230.8510083 251.98737793 -230.88232422 250.74707031 C-232.32168323 184.39380932 -209.03805199 121.70933281 -163.10546875 73.61328125 C-162.01084003 72.47615481 -160.91582464 71.33940038 -159.8203125 70.203125 C-158.99402344 69.33558594 -158.16773438 68.46804687 -157.31640625 67.57421875 C-142.66793461 52.50647065 -124.89739125 40.72628548 -106.8203125 30.203125 C-106.20784668 29.8412207 -105.59538086 29.47931641 -104.96435547 29.10644531 C-74.14323423 11.04753211 -35.77895411 0.20842063 0 0 Z M133.1796875 468.203125 C134.1796875 470.203125 134.1796875 470.203125 134.1796875 470.203125 Z " fill="#ADD4F4" transform="translate(249.8203125,17.796875)"/>
<path d="M0 0 C1.2193499 -0.01058945 1.2193499 -0.01058945 2.46333313 -0.02139282 C65.33673581 -0.44306791 123.62723276 18.11063169 171.1796875 60.203125 C172.07300781 60.98558594 172.96632813 61.76804688 173.88671875 62.57421875 C183.18058093 70.81163577 191.49071341 79.44554367 199.1796875 89.203125 C200.36884766 90.68425781 200.36884766 90.68425781 201.58203125 92.1953125 C241.51573873 142.79062592 258.96121519 207.23504653 251.58642578 271.10839844 C245.52465832 317.23022577 227.11736365 358.96700841 198.1796875 395.203125 C199.89671461 398.75708334 201.3304291 401.48337835 204.1796875 404.203125 C204.5096875 405.193125 204.8396875 406.183125 205.1796875 407.203125 C206.88129061 408.35324593 206.88129061 408.35324593 208.99609375 409.24609375 C209.75986328 409.59736328 210.52363281 409.94863281 211.31054688 410.31054688 C212.11298828 410.66697266 212.91542969 411.02339844 213.7421875 411.390625 C214.95165039 411.94266602 214.95165039 411.94266602 216.18554688 412.50585938 C218.17955048 413.41436989 220.17745708 414.31292836 222.1796875 415.203125 C220.65396094 418.52948382 219.24624246 420.15875502 216.1796875 422.203125 C217.59888242 426.66345188 220.04585225 429.53164916 223.2421875 432.828125 C226.85835096 436.65696921 230.32562123 440.5231529 233.6171875 444.640625 C236.98315015 448.82549807 240.51144767 452.78626898 244.1796875 456.703125 C248.63840945 461.46403834 252.81766374 466.36780063 256.90234375 471.45703125 C259.3979514 474.46631458 262.01732231 477.34252786 264.6796875 480.203125 C268.13130686 483.91174188 271.44490898 487.68818395 274.6171875 491.640625 C277.98315015 495.82549807 281.51144767 499.78626898 285.1796875 503.703125 C289.63840945 508.46403834 293.81766374 513.36780063 297.90234375 518.45703125 C300.39795219 521.46631552 303.01733893 524.34251154 305.6796875 527.203125 C309.94889529 531.79069939 313.93727489 536.53755504 317.8671875 541.421875 C320.82145114 544.97497586 323.94882174 548.3433618 327.09594727 551.72485352 C330.06684378 554.9361155 332.87929827 558.22940315 335.6171875 561.640625 C338.98315015 565.82549807 342.51144767 569.78626898 346.1796875 573.703125 C350.63840945 578.46403834 354.81766374 583.36780063 358.90234375 588.45703125 C361.39795219 591.46631552 364.01733893 594.34251154 366.6796875 597.203125 C370.94889529 601.79069939 374.93727489 606.53755504 378.8671875 611.421875 C381.37940006 614.44331984 384.00372838 617.32750883 386.6796875 620.203125 C390.97702646 624.82198291 395.00739857 629.59532663 398.96484375 634.51171875 C402.55529556 638.87471927 406.36028491 643.04060823 410.1796875 647.203125 C413.27990071 645.67951594 416.23130979 644.00491138 419.1796875 642.203125 C422.34463599 649.88958438 425.19048618 657.66830394 427.9296875 665.515625 C428.34089844 666.66869141 428.75210938 667.82175781 429.17578125 669.00976562 C429.56378906 670.12158203 429.95179688 671.23339844 430.3515625 672.37890625 C430.7031543 673.37833252 431.05474609 674.37775879 431.41699219 675.4074707 C432.18427536 678.21994178 432.52992861 680.31097788 432.1796875 683.203125 C431.0690918 684.82128906 431.0690918 684.82128906 429.50390625 686.21875 C428.64140259 687.00487671 428.64140259 687.00487671 427.76147461 687.80688477 C427.13635986 688.35014404 426.51124512 688.89340332 425.8671875 689.453125 C425.2285376 690.02667725 424.5898877 690.60022949 423.93188477 691.19116211 C419.39069817 695.23791561 414.7057672 699.09414785 409.95703125 702.89453125 C406.75525172 705.55592605 403.71742796 708.35783268 400.6796875 711.203125 C395.81689021 715.7553015 390.82981485 720.06975086 385.61328125 724.21875 C383.42475918 726.00329127 381.40853672 727.88057957 379.3671875 729.828125 C376.1796875 732.203125 376.1796875 732.203125 373.45458984 732.07641602 C369.5696796 731.04045926 366.148814 729.43785542 362.59375 727.60546875 C361.89196625 727.25174698 361.1901825 726.89802521 360.46713257 726.53358459 C358.24242393 725.41009976 356.02356353 724.2755784 353.8046875 723.140625 C352.29073809 722.37361127 350.77641871 721.60732735 349.26171875 720.84179688 C345.56337317 718.97065842 341.87022898 717.08960605 338.1796875 715.203125 C338.1796875 712.203125 338.1796875 712.203125 339.4921875 710.81640625 C341.0546875 709.61197917 342.6171875 708.40755208 344.1796875 707.203125 C339.95709293 701.17084705 335.17433158 695.89883822 330.13647461 690.5546875 C326.01821902 686.16437781 322.18470462 681.61415372 318.421875 676.9140625 C315.940622 673.91408065 313.33104443 671.05158849 310.6796875 668.203125 C307.22804696 664.49452965 303.91446456 660.71806423 300.7421875 656.765625 C297.37622485 652.58075193 293.84792733 648.61998102 290.1796875 644.703125 C285.72096555 639.94221166 281.54171126 635.03844937 277.45703125 629.94921875 C274.96142281 626.93993448 272.34203607 624.06373846 269.6796875 621.203125 C265.41047971 616.61555061 261.42210011 611.86869496 257.4921875 606.984375 C254.53792386 603.43127414 251.41055326 600.0628882 248.26342773 596.68139648 C245.29253122 593.4701345 242.48007673 590.17684685 239.7421875 586.765625 C236.37622485 582.58075193 232.84792733 578.61998102 229.1796875 574.703125 C224.72096555 569.94221166 220.54171126 565.03844937 216.45703125 559.94921875 C213.96142281 556.93993448 211.34203607 554.06373846 208.6796875 551.203125 C204.41047971 546.61555061 200.42210011 541.86869496 196.4921875 536.984375 C193.53792386 533.43127414 190.41055326 530.0628882 187.26342773 526.68139648 C184.29253122 523.4701345 181.48007673 520.17684685 178.7421875 516.765625 C174.90352098 511.99304319 170.82169481 507.52196286 166.63671875 503.05688477 C162.61493862 498.74056081 158.87652978 494.26888326 155.21484375 489.640625 C153.01003501 486.99993276 150.64305258 484.60222839 148.1796875 482.203125 C147.2515625 483.04875 146.3234375 483.894375 145.3671875 484.765625 C143.78515625 486.20703125 143.78515625 486.20703125 142.1796875 487.203125 C141.1896875 486.873125 140.1996875 486.543125 139.1796875 486.203125 C137.78440707 482.76443388 136.74677727 479.26481825 135.65625 475.71875 C134.03714033 471.86372697 132.2733687 469.9641523 129.1796875 467.203125 C128.05769345 466.03245441 126.95053724 464.84714629 125.8671875 463.640625 C125.35542969 463.08246094 124.84367187 462.52429688 124.31640625 461.94921875 C123.1796875 460.203125 123.1796875 460.203125 123.1796875 456.203125 C121.50519531 457.0384375 121.50519531 457.0384375 119.796875 457.890625 C61.11111196 486.70878825 -6.14371841 491.48518785 -68.1809082 470.35229492 C-108.16328526 456.25915326 -145.4921032 431.84382332 -172.8203125 399.203125 C-173.26938965 398.67170898 -173.7184668 398.14029297 -174.18115234 397.59277344 C-207.68421034 357.72894133 -229.54175057 305.56857431 -230.8203125 253.203125 C-230.8510083 251.98737793 -230.8510083 251.98737793 -230.88232422 250.74707031 C-232.32168323 184.39380932 -209.03805199 121.70933281 -163.10546875 73.61328125 C-162.01084003 72.47615481 -160.91582464 71.33940038 -159.8203125 70.203125 C-158.99402344 69.33558594 -158.16773438 68.46804687 -157.31640625 67.57421875 C-142.66793461 52.50647065 -124.89739125 40.72628548 -106.8203125 30.203125 C-106.20784668 29.8412207 -105.59538086 29.47931641 -104.96435547 29.10644531 C-74.14323423 11.04753211 -35.77895411 0.20842063 0 0 Z M-131.8203125 120.203125 C-139.59351148 129.0679469 -145.87805812 139.05267193 -151.8203125 149.203125 C-152.21105957 149.86795898 -152.60180664 150.53279297 -153.00439453 151.21777344 C-163.44311563 169.23913249 -169.82370636 188.82257091 -173.8203125 209.203125 C-174.06652344 210.4509375 -174.31273437 211.69875 -174.56640625 212.984375 C-178.4804827 237.81851522 -177.40188573 266.21233538 -169.8203125 290.203125 C-169.40604004 291.54383057 -169.40604004 291.54383057 -168.98339844 292.91162109 C-160.501276 320.17044617 -148.65322908 343.60350243 -129.8203125 365.203125 C-129.30291504 365.8002832 -128.78551758 366.39744141 -128.25244141 367.01269531 C-121.66808739 374.55260658 -114.7442614 381.05055067 -106.8203125 387.203125 C-106.06878906 387.84378906 -105.31726563 388.48445313 -104.54296875 389.14453125 C-76.62271182 412.76936403 -36.70944798 428.31595282 -0.15625 428.37109375 C0.63889008 428.37442215 1.43403015 428.37775055 2.25326538 428.38117981 C3.92551096 428.38620566 5.59776641 428.38858949 7.27001953 428.38842773 C9.7778453 428.39060173 12.28522117 428.40876987 14.79296875 428.42773438 C24.77653017 428.46248252 34.3231622 427.82633716 44.1796875 426.203125 C45.3960791 426.01194092 46.6124707 425.82075684 47.86572266 425.6237793 C79.36797042 420.43683928 110.41956463 404.25856529 134.1796875 383.203125 C134.73108398 382.71730957 135.28248047 382.23149414 135.85058594 381.73095703 C143.72889282 374.74879144 150.75821227 367.57691688 157.1796875 359.203125 C157.96601563 358.2440625 158.75234375 357.285 159.5625 356.296875 C171.0269183 342.06518332 179.23967598 326.04062559 186.1796875 309.203125 C186.51548828 308.41760254 186.85128906 307.63208008 187.19726562 306.82275391 C189.68098215 300.88024078 191.39513734 294.98118721 192.8046875 288.703125 C193.00835937 287.83042969 193.21203125 286.95773437 193.421875 286.05859375 C194.02617322 283.44384182 194.60643434 280.82484241 195.1796875 278.203125 C195.36370117 277.39101563 195.54771484 276.57890625 195.73730469 275.7421875 C203.02179774 242.02616052 198.50748165 205.04263267 186.1796875 173.203125 C185.76614014 172.12780518 185.76614014 172.12780518 185.34423828 171.03076172 C168.60526122 128.37788711 133.10352875 90.48211066 91.12109375 71.90234375 C87.17827914 70.21541324 83.21005487 68.59822691 79.21948242 67.02783203 C77.40629826 66.29474572 75.62396785 65.48636319 73.84765625 64.66796875 C0.70087191 35.45599417 -80.62394782 64.89765852 -131.8203125 120.203125 Z M133.1796875 468.203125 C134.1796875 470.203125 134.1796875 470.203125 134.1796875 470.203125 Z " fill="#E9C82E" transform="translate(249.8203125,17.796875)"/>
<path d="M0 0 C3.73323926 1.24441309 4.59860164 2.72687968 7 5.8125 C10.36078255 10.02984564 13.82010874 14.05960255 17.5 18 C20.95229894 21.70795857 24.26526193 25.48510935 27.4375 29.4375 C30.80346265 33.62237307 34.33176017 37.58314398 38 41.5 C42.45872195 46.26091334 46.63797624 51.16467563 50.72265625 56.25390625 C53.21826469 59.26319052 55.83765143 62.13938654 58.5 65 C62.76920779 69.58757439 66.75758739 74.33443004 70.6875 79.21875 C73.64176364 82.77185086 76.76913424 86.1402368 79.91625977 89.52172852 C82.88715628 92.7329905 85.69961077 96.02627815 88.4375 99.4375 C91.80346265 103.62237307 95.33176017 107.58314398 99 111.5 C103.45872195 116.26091334 107.63797624 121.16467563 111.72265625 126.25390625 C114.21826469 129.26319052 116.83765143 132.13938654 119.5 135 C123.76920779 139.58757439 127.75758739 144.33443004 131.6875 149.21875 C134.64176364 152.77185086 137.76913424 156.1402368 140.91625977 159.52172852 C143.88715628 162.7329905 146.69961077 166.02627815 149.4375 169.4375 C152.80346265 173.62237307 156.33176017 177.58314398 160 181.5 C164.45872195 186.26091334 168.63797624 191.16467563 172.72265625 196.25390625 C175.65437302 199.78906387 178.76558705 203.14299765 181.89892578 206.49780273 C185.85225131 210.75956842 189.46424313 215.2249117 193.02734375 219.8203125 C194.94417148 221.93831225 196.37288318 222.95385505 199 224 C200.98 222.35 202.96 220.7 205 219 C208.10506 220.55253 208.22159985 223.00107562 209.3125 226.23046875 C209.52688721 226.85850906 209.74127441 227.48654938 209.9621582 228.13362122 C210.64839867 230.14929645 211.32428203 232.16827593 212 234.1875 C212.45505555 235.52952548 212.91077701 236.87132535 213.3671875 238.21289062 C214.58720348 241.80557011 215.79613571 245.40187141 217 249 C217.36697998 250.08095947 217.73395996 251.16191895 218.11206055 252.27563477 C219.63208781 256.93936428 219.63208781 256.93936428 219 260 C217.14799075 262.3701921 214.95260863 264.28149536 212.6875 266.25 C212.0488501 266.82355225 211.4102002 267.39710449 210.75219727 267.98803711 C206.21101067 272.03479061 201.5260797 275.89102285 196.77734375 279.69140625 C193.57556422 282.35280105 190.53774046 285.15470768 187.5 288 C182.63720271 292.5521765 177.65012735 296.86662586 172.43359375 301.015625 C170.24507168 302.80016627 168.22884922 304.67745457 166.1875 306.625 C163 309 163 309 160.27490234 308.87329102 C156.3899921 307.83733426 152.9691265 306.23473042 149.4140625 304.40234375 C148.71227875 304.04862198 148.010495 303.69490021 147.28744507 303.33045959 C145.06273643 302.20697476 142.84387603 301.0724534 140.625 299.9375 C139.11105059 299.17048627 137.59673121 298.40420235 136.08203125 297.63867188 C132.38368567 295.76753342 128.69054148 293.88648105 125 292 C125 289 125 289 126.3125 287.61328125 C127.875 286.40885417 129.4375 285.20442708 131 284 C126.77740543 277.96772205 121.99464408 272.69571322 116.95678711 267.3515625 C112.83853152 262.96125281 109.00501712 258.41102872 105.2421875 253.7109375 C102.7609345 250.71095565 100.15135693 247.84846349 97.5 245 C94.04835946 241.29140465 90.73477706 237.51493923 87.5625 233.5625 C84.19653735 229.37762693 80.66823983 225.41685602 77 221.5 C72.54127805 216.73908666 68.36202376 211.83532437 64.27734375 206.74609375 C61.78173531 203.73680948 59.16234857 200.86061346 56.5 198 C52.23079221 193.41242561 48.24241261 188.66556996 44.3125 183.78125 C41.35823636 180.22814914 38.23086576 176.8597632 35.08374023 173.47827148 C32.11284372 170.2670095 29.30038923 166.97372185 26.5625 163.5625 C23.19653735 159.37762693 19.66823983 155.41685602 16 151.5 C11.54127805 146.73908666 7.36202376 141.83532437 3.27734375 136.74609375 C0.78173531 133.73680948 -1.83765143 130.86061346 -4.5 128 C-8.76920779 123.41242561 -12.75758739 118.66556996 -16.6875 113.78125 C-19.64176364 110.22814914 -22.76913424 106.8597632 -25.91625977 103.47827148 C-28.88715628 100.2670095 -31.69961077 96.97372185 -34.4375 93.5625 C-37.80347455 89.37761215 -41.33186895 85.41697412 -45 81.5 C-49.57529925 76.61195878 -53.89616624 71.60859993 -58.0859375 66.3828125 C-59.70766224 64.36393069 -61.36904286 62.39585547 -63.0625 60.4375 C-65 58 -65 58 -65 56 C-63.42713316 54.58561594 -61.78860004 53.24395599 -60.125 51.9375 C-56.31164438 48.88974135 -52.60191191 45.79499659 -49 42.5 C-45.62539052 39.42346328 -42.18184136 36.48881783 -38.625 33.625 C-34.61175889 30.3804924 -30.77564046 27.0127332 -27 23.5 C-22.38108785 19.20271423 -17.60780402 15.17229349 -12.69140625 11.21484375 C-8.32840573 7.62439194 -4.16251677 3.81940259 0 0 Z " fill="#170101" transform="translate(463,441)"/>
<path d="M0 0 C3.10506 1.55253 3.22159985 4.00107562 4.3125 7.23046875 C4.52688721 7.85850906 4.74127441 8.48654938 4.9621582 9.13362122 C5.64839867 11.14929645 6.32428203 13.16827593 7 15.1875 C7.45505555 16.52952548 7.91077701 17.87132535 8.3671875 19.21289062 C9.58720348 22.80557011 10.79613571 26.40187141 12 30 C12.36697998 31.08095947 12.73395996 32.16191895 13.11206055 33.27563477 C14.63208781 37.93936428 14.63208781 37.93936428 14 41 C12.14799075 43.3701921 9.95260863 45.28149536 7.6875 47.25 C7.0488501 47.82355225 6.4102002 48.39710449 5.75219727 48.98803711 C1.21101067 53.03479061 -3.4739203 56.89102285 -8.22265625 60.69140625 C-11.42443578 63.35280105 -14.46225954 66.15470768 -17.5 69 C-22.36279729 73.5521765 -27.34987265 77.86662586 -32.56640625 82.015625 C-34.75492832 83.80016627 -36.77115078 85.67745457 -38.8125 87.625 C-42 90 -42 90 -44.72509766 89.87329102 C-48.6100079 88.83733426 -52.0308735 87.23473042 -55.5859375 85.40234375 C-56.28772125 85.04862198 -56.989505 84.69490021 -57.71255493 84.33045959 C-59.93726357 83.20697476 -62.15612397 82.0724534 -64.375 80.9375 C-65.88894941 80.17048627 -67.40326879 79.40420235 -68.91796875 78.63867188 C-72.61631433 76.76753342 -76.30945852 74.88648105 -80 73 C-80 72.01 -80 71.02 -80 70 C-77.34155103 67.52702421 -74.9304376 65.51044841 -71.75 63.765625 C-67.97799097 61.34382375 -64.91672444 58.34310358 -61.6875 55.25 C-60.34458836 53.97958196 -59.00084761 52.71003974 -57.65625 51.44140625 C-56.70105469 50.53865967 -56.70105469 50.53865967 -55.7265625 49.61767578 C-53.16701656 47.21954917 -50.53397007 44.91539129 -47.875 42.62890625 C-45.61248819 40.66334911 -43.40309317 38.64326691 -41.1875 36.625 C-37.76770672 33.53363199 -34.28041476 30.57540968 -30.6875 27.6875 C-23.22626484 21.64846329 -16.13288656 15.14509598 -9.35546875 8.34765625 C-7.36072826 6.35953182 -5.33889799 4.5014238 -3.1875 2.6875 C-2.28064453 1.91986328 -2.28064453 1.91986328 -1.35546875 1.13671875 C-0.90816406 0.76160156 -0.46085938 0.38648438 0 0 Z " fill="#BA8B19" transform="translate(668,660)"/>
<path d="M0 0 C0.598125 0.763125 1.19625 1.52625 1.8125 2.3125 C3.83046835 4.90221468 3.83046835 4.90221468 5.6875 6.625 C7 8 7 8 8 11 C9.70160311 12.15012093 9.70160311 12.15012093 11.81640625 13.04296875 C12.58017578 13.39423828 13.34394531 13.74550781 14.13085938 14.10742188 C15.33452148 14.64206055 15.33452148 14.64206055 16.5625 15.1875 C17.77196289 15.73954102 17.77196289 15.73954102 19.00585938 16.30273438 C20.99986298 17.21124489 22.99776958 18.10980336 25 19 C23.37876704 22.47945679 21.83294195 24.17248092 18.75 26.5 C14.40111918 29.87478179 10.1733197 33.35026668 6 36.9375 C5.39986084 37.4528833 4.79972168 37.9682666 4.18139648 38.49926758 C0.68243821 41.51653006 -2.769091 44.57886734 -6.1875 47.6875 C-9.52227114 50.71712868 -12.93287639 53.60608092 -16.4375 56.4375 C-21.20063886 60.28954619 -25.7139726 64.35510982 -30.21875 68.50390625 C-33.93307729 71.83741066 -37.7927195 74.97062274 -41.6875 78.08984375 C-43.96615487 79.89810118 -43.96615487 79.89810118 -45.6875 81.75390625 C-47 83 -47 83 -49 83 C-49.0928125 83.86625 -49.0928125 83.86625 -49.1875 84.75 C-50.34689075 87.96062054 -52.17315616 89.18274325 -55 91 C-56.485 90.505 -56.485 90.505 -58 90 C-59.39528043 86.56130888 -60.43291023 83.06169325 -61.5234375 79.515625 C-63.14295907 75.65962125 -64.90065003 73.75709047 -68 71 C-69.14358696 69.85154671 -70.27174917 68.6872547 -71.375 67.5 C-71.89835937 66.9534375 -72.42171875 66.406875 -72.9609375 65.84375 C-74 64 -74 64 -73.94921875 61.51171875 C-72.71831588 58.25463831 -71.29823891 57.27792569 -68.4375 55.3125 C-67.43976563 54.6215625 -66.44203125 53.930625 -65.4140625 53.21875 C-62.42682862 51.24714055 -59.37675533 49.38820355 -56.31713867 47.53173828 C-39.91746921 37.5573199 -25.31767875 24.87901456 -12.2265625 10.87109375 C-10 9 -10 9 -6 9 C-3.62287231 14.44596057 -2.59719324 19.13507386 -4 25 C-6.66378166 29.5105652 -10.35733527 33.27277341 -14 37 C-5.48669805 30.37549429 -5.48669805 30.37549429 -1.3125 20.8125 C-0.95991392 16.51094979 -0.80621089 12.18678896 -2 8 C-2.99 7.34 -3.98 6.68 -5 6 C-3.63016497 2.83884224 -3.0109362 2.0072908 0 0 Z M-64 72 C-63 74 -63 74 -63 74 Z " fill="#9A7212" transform="translate(447,414)"/>
<path d="M0 0 C1.3844761 3.84576695 0.59624729 7.02501804 0 11 C0 12.3959888 0.02092474 13.79213044 0.0625 15.1875 C0.00290449 18.82282611 -0.3341405 19.98062966 -2 23 C-2 23.804375 -2 24.60875 -2 25.4375 C-2 29.12910336 -3.3952898 31.8261508 -5.0625 35.0625 C-6.0695434 36.96975793 -6.0695434 36.96975793 -6.5 39.0625 C-7 41 -7 41 -9 44 C-8.67 44.66 -8.34 45.32 -8 46 C-8.99335201 47.67063747 -9.99431758 49.33675599 -11 51 C-11.35919668 52.66128463 -11.68911632 54.32900023 -12 56 C-12.91802828 58.69911309 -13.95618749 61.3474249 -15 64 C-15.350625 64.928125 -15.70125 65.85625 -16.0625 66.8125 C-17 69 -17 69 -19 72 C-19.28875 72.94875 -19.5775 73.8975 -19.875 74.875 C-21.09861236 78.27392323 -22.68073204 80.25904695 -25 83 C-26.45752248 85.28133954 -27.78983558 87.58613775 -29.015625 90 C-31.78401631 95.31531132 -35.00027091 99.51779434 -39.1328125 103.859375 C-41.06729823 105.947412 -41.06729823 105.947412 -42.44140625 108.42578125 C-45.75562892 113.89964777 -50.59324138 118.38480492 -55 123 C-55.59441895 123.62310059 -56.18883789 124.24620117 -56.80126953 124.88818359 C-58.64806406 126.81162471 -60.50861252 128.72057842 -62.375 130.625 C-63.24862183 131.53076782 -63.24862183 131.53076782 -64.13989258 132.45483398 C-67.30697543 135.64653501 -69.72522231 137.45065718 -74 139 C-76.31442484 140.88565632 -76.31442484 140.88565632 -78.5625 143.125 C-86.36579573 150.36757986 -95.45571158 156.28466703 -105 161 C-107.26728687 162.28133642 -109.52556982 163.57725519 -111.78125 164.87890625 C-113.87863082 165.93867438 -115.71731132 166.4997512 -118 167 C-119.35085807 167.63040043 -120.68252676 168.30251417 -122 169 C-124 170 -126 171 -128 172 C-128.66 171.01 -129.32 170.02 -130 169 C-123.55811371 163.58159097 -117.08206787 158.54464249 -110 154 C-108.43667799 152.93870985 -106.87417517 151.87621197 -105.3125 150.8125 C-102.84789607 149.15946409 -100.56078643 147.78917749 -97.875 146.5 C-94.83051832 144.91157478 -92.61865364 143.09097986 -90.06640625 140.82421875 C-87.50210749 138.56046162 -84.88369654 136.37010227 -82.25 134.1875 C-81.32703125 133.41792969 -80.4040625 132.64835938 -79.453125 131.85546875 C-77 130 -77 130 -74 129 C-73.71125 128.401875 -73.4225 127.80375 -73.125 127.1875 C-71.63360602 124.28756725 -69.57892183 122.96489282 -67 121 C-66.278125 120.2575 -65.55625 119.515 -64.8125 118.75 C-63 117 -63 117 -61 117 C-60.77183594 116.28972656 -60.54367187 115.57945312 -60.30859375 114.84765625 C-58.72402572 111.399447 -56.66852024 109.18893693 -54.0625 106.4375 C-50.51221662 102.69253324 -50.51221662 102.69253324 -47.30859375 98.66015625 C-46.87675781 98.11230469 -46.44492187 97.56445312 -46 97 C-45.34 97 -44.68 97 -44 97 C-43.79375 96.175 -43.5875 95.35 -43.375 94.5 C-41.93427952 90.8327115 -40.18017171 88.46512746 -37.77734375 85.3984375 C-32.12376644 77.76921449 -27.53764763 69.32715263 -23 61 C-21.09275574 57.5975294 -19.16524026 54.24786039 -17 51 C-16.40936404 48.69898075 -15.99209054 46.39449232 -15.5625 44.05859375 C-15 42 -15 42 -13 40 C-12.09635561 37.44257053 -11.27262284 34.90898101 -10.5 32.3125 C-10.18095703 31.26932617 -10.18095703 31.26932617 -9.85546875 30.20507812 C-8.51997536 25.81761364 -7.25094457 21.4123275 -6 17 C-4.33505118 11.1421696 -2.53130671 5.54476709 0 0 Z " fill="#ECD04D" transform="translate(475,287)"/>
<path d="M0 0 C0.99 0.33 1.98 0.66 3 1 C-0.20735106 5.39525887 -3.17489791 7.90134919 -8.25 9.875 C-13.04947622 11.83842209 -17.48762734 14.53361516 -21.9609375 17.14453125 C-24.41667018 18.57614833 -26.77956671 19.91724948 -29.4453125 20.91796875 C-32.08871903 22.03757671 -33.90903056 23.31346605 -36.125 25.125 C-39.24556857 27.65853092 -42.42776873 29.96429612 -45.7578125 32.2109375 C-53.4254923 37.76746915 -59.91163636 44.53569552 -66.54443359 51.26318359 C-68.75230516 53.50233782 -70.97078159 55.73053063 -73.19140625 57.95703125 C-74.62302202 59.39781557 -76.05403264 60.83920149 -77.484375 62.28125 C-78.13557312 62.936698 -78.78677124 63.592146 -79.45770264 64.26745605 C-87.94960469 72.87289071 -87.94960469 72.87289071 -95.125 82.5625 C-96.90074018 85.32318407 -98.71912731 87.9985445 -100.6875 90.625 C-103.04144102 93.87103968 -104.45277595 97.30011639 -106 101 C-106.66 101.969375 -107.32 102.93875 -108 103.9375 C-109.9493306 106.92241248 -111.04560427 109.58133785 -112.21484375 112.91015625 C-113.96010512 117.55550368 -116.25164777 121.87747165 -119 126 C-118.505 126.99 -118.505 126.99 -118 128 C-118.639375 128.9075 -119.27875 129.815 -119.9375 130.75 C-121.68661915 133.50618775 -122.40702707 134.93630652 -123 138 C-123.495 139.175625 -123.495 139.175625 -124 140.375 C-125.10055329 143.26395238 -125.56324725 145.94273073 -126 149 C-126.165 149.928125 -126.33 150.85625 -126.5 151.8125 C-126.88363427 154.25816848 -127.18488789 156.66535575 -127.4375 159.125 C-127.94093257 163.855668 -128.72619863 168.52275495 -129.52734375 173.2109375 C-130.52841319 179.11807455 -131.26988283 185.0547602 -132 191 C-132.99 191.33 -133.98 191.66 -135 192 C-135.89337655 185.41650207 -135.91309852 179.56078198 -135 173 C-134.84918715 171.37545457 -134.70350698 169.75042591 -134.5625 168.125 C-133.8620537 160.99823685 -132.40294984 154.01474922 -131 147 C-130.855625 146.21625 -130.71125 145.4325 -130.5625 144.625 C-129.40057509 139.20268376 -127.70829989 134.04546759 -125.68359375 128.89453125 C-124.98184744 126.94969148 -124.49335908 125.00632692 -124 123 C-123.690625 122.236875 -123.38125 121.47375 -123.0625 120.6875 C-121.92334424 117.96569481 -121.92334424 117.96569481 -121.1875 114.875 C-117.60235353 102.10636294 -109.82570431 90.67441356 -102.67578125 79.66796875 C-101.42843094 77.68209402 -100.25907778 75.64680942 -99.1328125 73.58984375 C-96.99878051 69.82423568 -94.39580441 66.63310521 -91.5625 63.375 C-90.86543945 62.55515625 -90.86543945 62.55515625 -90.15429688 61.71875 C-87.24258331 58.32378132 -84.19120509 55.13728304 -81 52 C-79.99304177 50.9730671 -78.98793386 49.94431764 -77.984375 48.9140625 C-71.96413812 42.77356889 -65.95514849 37.08756232 -59 32 C-57.49765956 30.81546235 -55.99769329 29.62790794 -54.5 28.4375 C-48.62443255 23.87674484 -42.92915752 19.75299861 -36 17 C-35.54625 16.525625 -35.0925 16.05125 -34.625 15.5625 C-32.65688722 13.67008386 -30.54534974 12.8925706 -28.03515625 11.890625 C-24.92522372 10.52965645 -22.03919105 8.8009468 -19.11328125 7.0859375 C-17.05426473 6.02788465 -15.23259715 5.55479368 -13 5 C-11.81209342 4.32789496 -10.64435951 3.61883368 -9.5 2.875 C-6 1 -6 1 -3.6875 1.375 C-3.130625 1.58125 -2.57375 1.7875 -2 2 C-1.34 1.34 -0.68 0.68 0 0 Z " fill="#EDD45D" transform="translate(184,60)"/>
<path d="M0 0 C0.99 0.33 1.98 0.66 3 1 C-0.59684578 5.65549188 -3.5144615 8.6000769 -9 11 C-9.928125 11.61875 -10.85625 12.2375 -11.8125 12.875 C-21.62627737 19.41751825 -21.62627737 19.41751825 -26.1171875 20.51953125 C-28.26413387 20.92962513 -28.26413387 20.92962513 -30.5 23 C-33 25 -33 25 -34.8671875 25.40234375 C-37.71368963 26.19998995 -39.35744937 27.67533653 -41.625 29.5625 C-47 34 -47 34 -49.04907227 35.55224609 C-56.54400314 41.30688229 -63.12420286 47.85322752 -69.76000977 54.55419922 C-71.68907218 56.50158712 -73.62608608 58.44078398 -75.56445312 60.37890625 C-86.59675834 70.69633031 -86.59675834 70.69633031 -95 83 C-96.12174481 84.66234472 -97.26949964 86.30732315 -98.4375 87.9375 C-101.37656425 92.04457251 -104.09331105 96.14344645 -106.3125 100.6875 C-111.16521111 110.21319218 -116.02636874 117.01757916 -125 123 C-123.95122539 119.10455146 -122.8465768 115.57774255 -121 112 C-120.5978125 110.6696875 -120.5978125 110.6696875 -120.1875 109.3125 C-117.80097106 102.65534032 -113.93753459 96.83841335 -110 91 C-109.67 90.319375 -109.34 89.63875 -109 88.9375 C-108 87 -108 87 -106.125 84.6875 C-103.89891474 82.02514884 -103.89891474 82.02514884 -102.25 78.8125 C-93.91987814 63.83772842 -79.65772724 50.54964172 -66.7421875 39.52734375 C-65.19874978 38.17424028 -63.74711653 36.7179797 -62.3125 35.25 C-60.0112107 33.0109077 -57.76483228 31.60069237 -55 30 C-54.54625 29.52691406 -54.0925 29.05382812 -53.625 28.56640625 C-51.76433004 26.77282775 -49.91430555 25.75403275 -47.625 24.5625 C-44.09342024 22.66220101 -41.09415977 20.56373238 -38 18 C-36.67532254 17.3162955 -35.34136367 16.65035814 -34 16 C-33.11441406 15.39542969 -32.22882813 14.79085937 -31.31640625 14.16796875 C-27.9415106 11.96176488 -24.48375569 10.09359555 -20.875 8.3125 C-20.26785156 8.00505859 -19.66070312 7.69761719 -19.03515625 7.38085938 C-16.05517257 5.89735987 -13.26080155 4.67718678 -10 4 C-9.154375 3.649375 -8.30875 3.29875 -7.4375 2.9375 C-5 2 -5 2 -2 2 C-1.34 1.34 -0.68 0.68 0 0 Z " fill="#EBCE44" transform="translate(174,47)"/>
<path d="M0 0 C0.99 0.99 0.99 0.99 2 2 C1.54625 2.86625 1.0925 3.7325 0.625 4.625 C-1.28746253 8.59703757 -2.56810837 12.61177691 -3.875 16.8125 C-6.00831584 22.85689488 -8.58562188 28.56803481 -12 34 C-12.6837045 35.32467746 -13.34964186 36.65863633 -14 38 C-15.54304955 41.15039284 -17.05193851 44.07790776 -19 47 C-19.29519531 47.61488281 -19.59039062 48.22976563 -19.89453125 48.86328125 C-22.33950101 53.58907086 -25.82463168 57.74686068 -29 62 C-29.87398437 63.17175781 -29.87398437 63.17175781 -30.765625 64.3671875 C-41.72238399 78.75433366 -55.30880456 94.42324602 -70.984375 103.7421875 C-73.849943 105.53039079 -76.48317133 107.58702879 -79.140625 109.66796875 C-81.02752545 111.01971886 -82.92301028 111.97143339 -85 113 C-87.25473186 114.48433153 -89.46766466 116.02098411 -91.68359375 117.5625 C-94.06457125 119.04007119 -96.37688235 120.02738334 -99 121 C-102.3717332 122.38481899 -105.56641143 123.73783016 -108.6875 125.625 C-110.89579991 126.93804319 -112.54495809 127.38623952 -115 128 C-116.2375 128.804375 -116.2375 128.804375 -117.5 129.625 C-120.46964789 131.25830634 -120.90736225 130.86980437 -124 130 C-126.70465742 130.86454438 -126.70465742 130.86454438 -129 132 C-129 131.34 -129 130.68 -129 130 C-120.19682573 124.75239352 -111.82696892 120.18547461 -101.98828125 117.16796875 C-98.74751572 115.9013166 -96.6342308 114.24296335 -94 112 C-92.33333333 111.33333333 -90.66666667 110.66666667 -89 110 C-88.13375 109.29875 -87.2675 108.5975 -86.375 107.875 C-84 106 -84 106 -81 106 C-80.505 104.515 -80.505 104.515 -80 103 C-78.66666667 102.33333333 -77.33333333 101.66666667 -76 101 C-72.98789173 98.23211673 -70.33679598 95.23190164 -67.6875 92.125 C-64.70859444 88.68184942 -61.51502912 85.73775828 -58.0546875 82.7890625 C-51.56593926 77.16963444 -51.56593926 77.16963444 -46.4375 70.375 C-44.96778645 67.94677761 -43.70041508 66.86337366 -41.5 65.125 C-38.72869846 62.8733175 -37.97324564 61.93757316 -36.5 58.5 C-35.01454329 55.03393435 -34.44552503 54.33618323 -31.625 52.1875 C-27.74814062 49.15130697 -26.13689693 45.74255211 -24.1171875 41.3203125 C-22.77082981 38.52403114 -20.98777371 36.37250411 -19 34 C-15.83275974 29.00919716 -13.20979044 23.83412959 -12 18 C-12.495 16.515 -12.495 16.515 -13 15 C-9.7912168 8.95149493 -5.49823859 4.02310141 0 0 Z " fill="#EDD151" transform="translate(454,317)"/>
<path d="M0 0 C0.99 0.495 0.99 0.495 2 1 C-0.5153596 3.89266353 -0.5153596 3.89266353 -2.74609375 4.38671875 C-5.78492325 5.2135753 -8.12554058 6.74005935 -10.8125 8.375 C-14.09885292 10.34044594 -17.13500727 12.05491821 -20.6875 13.5 C-24.46188217 15.20915419 -27.27413836 17.38866712 -30.46655273 20.00195312 C-32.83071055 21.86648695 -35.25498118 23.52452202 -37.75 25.20703125 C-45.42137128 30.76421983 -51.90928221 37.53330776 -58.54443359 44.26318359 C-60.75230516 46.50233782 -62.97078159 48.73053063 -65.19140625 50.95703125 C-66.62302202 52.39781557 -68.05403264 53.83920149 -69.484375 55.28125 C-70.13557312 55.936698 -70.78677124 56.592146 -71.45770264 57.26745605 C-79.94960469 65.87289071 -79.94960469 65.87289071 -87.125 75.5625 C-88.90074018 78.32318407 -90.71912731 80.9985445 -92.6875 83.625 C-95.04144102 86.87103968 -96.45277595 90.30011639 -98 94 C-98.66 94.969375 -99.32 95.93875 -100 96.9375 C-101.9493306 99.92241248 -103.04560427 102.58133785 -104.21484375 105.91015625 C-105.96010512 110.55550368 -108.25164777 114.87747165 -111 119 C-110.505 119.99 -110.505 119.99 -110 121 C-110.639375 121.9075 -111.27875 122.815 -111.9375 123.75 C-113.68661915 126.50618775 -114.40702707 127.93630652 -115 131 C-115.495 132.175625 -115.495 132.175625 -116 133.375 C-117.10055329 136.26395238 -117.56324725 138.94273073 -118 142 C-118.165 142.928125 -118.33 143.85625 -118.5 144.8125 C-118.88363427 147.25816848 -119.18488789 149.66535575 -119.4375 152.125 C-119.94093257 156.855668 -120.72619863 161.52275495 -121.52734375 166.2109375 C-122.52841319 172.11807455 -123.26988283 178.0547602 -124 184 C-124.99 184.33 -125.98 184.66 -127 185 C-127.89337655 178.41650207 -127.91309852 172.56078198 -127 166 C-126.84918715 164.37545457 -126.70350698 162.75042591 -126.5625 161.125 C-125.8620537 153.99823685 -124.40294984 147.01474922 -123 140 C-122.855625 139.21625 -122.71125 138.4325 -122.5625 137.625 C-120.2462892 126.81601628 -116.76328561 117.92715582 -109.40234375 109.6484375 C-107.38044569 107.27172167 -106.07034581 105.57683562 -105.6875 102.4375 C-104.70161519 97.50807597 -102.36005793 93.40660263 -100 89 C-99.34 89 -98.68 89 -98 89 C-97.938125 88.319375 -97.87625 87.63875 -97.8125 86.9375 C-96.87101577 83.53367241 -95.35806729 81.47115752 -93.25390625 78.68359375 C-91.89601418 76.92311417 -91.89601418 76.92311417 -90.5625 74.5625 C-83.63558128 63.2023533 -74.3259769 52.3621408 -64 44 C-62.57709652 42.79901725 -61.1604241 41.59061414 -59.75 40.375 C-59.12609375 39.84648438 -58.5021875 39.31796875 -57.859375 38.7734375 C-55.90135437 36.99776519 -55.90135437 36.99776519 -54.19140625 34.63671875 C-51.50456934 31.40389359 -48.50415554 28.99504936 -45.1875 26.4375 C-44.30094727 25.73463867 -44.30094727 25.73463867 -43.39648438 25.01757812 C-40.42690023 22.70214447 -37.48445723 20.65153165 -34.17578125 18.84765625 C-30.82026206 17.20732097 -30.82026206 17.20732097 -29 14 C-27.35994945 13.26365077 -25.71452235 12.53672844 -24.04296875 11.875 C-21.84220619 10.93241718 -19.82555146 9.81741735 -17.75 8.625 C-12.65389431 5.73048214 -7.35094721 3.37819876 -2 1 C-1.34 0.67 -0.68 0.34 0 0 Z " fill="#EBCD42" transform="translate(176,67)"/>
<path d="M0 0 C1.49341969 2.98683937 0.40648676 4.95160978 -0.4375 8.125 C-0.86869141 9.76855469 -0.86869141 9.76855469 -1.30859375 11.4453125 C-1.53675781 12.28835938 -1.76492188 13.13140625 -2 14 C-2.66 14 -3.32 14 -4 14 C-4 15.65 -4 17.3 -4 19 C-4.66 19 -5.32 19 -6 19 C-6 20.32 -6 21.64 -6 23 C-6.66 23 -7.32 23 -8 23 C-8.13277344 23.62648438 -8.26554687 24.25296875 -8.40234375 24.8984375 C-8.57894531 25.71570313 -8.75554687 26.53296875 -8.9375 27.375 C-9.11152344 28.18710937 -9.28554688 28.99921875 -9.46484375 29.8359375 C-10 32 -10 32 -11 34 C-11.66 34 -12.32 34 -13 34 C-13.66 36.31 -14.32 38.62 -15 41 C-15.66 41 -16.32 41 -17 41 C-17.185625 41.9590625 -17.185625 41.9590625 -17.375 42.9375 C-17.58125 43.618125 -17.7875 44.29875 -18 45 C-18.99 45.495 -18.99 45.495 -20 46 C-20.72693904 47.97888961 -21.39816251 49.97954558 -22 52 C-22.66 52 -23.32 52 -24 52 C-24.268125 53.093125 -24.53625 54.18625 -24.8125 55.3125 C-26.39583333 60.22916667 -26.39583333 60.22916667 -29 62 C-29.99 62 -30.98 62 -32 62 C-32 62.66 -32 63.32 -32 64 C-32.66 64 -33.32 64 -34 64 C-34.103125 64.53625 -34.20625 65.0725 -34.3125 65.625 C-36.79402005 74.19752382 -42.42990267 79.67870979 -49.015625 85.26171875 C-50.84924883 86.86794435 -52.51544476 88.54132809 -54.1875 90.3125 C-57 93 -57 93 -59.39453125 93.953125 C-62.23000121 95.09241428 -64.14196233 96.50706423 -66.5 98.4375 C-69.57404488 100.89471351 -72.58466641 103.03618319 -76 105 C-78.2818942 106.51851187 -80.55100023 108.0546674 -82.81640625 109.59765625 C-85 111 -85 111 -87.203125 112.0625 C-89.15927167 112.88719373 -89.15927167 112.88719373 -90.1875 114.9375 C-92.65127469 117.74110568 -95.22047696 118.27492569 -98.74609375 119.2890625 C-100.97863117 119.99325975 -102.93755768 120.90065717 -105 122 C-105.33 121.34 -105.66 120.68 -106 120 C-103.85997236 118.5733149 -101.71970599 117.14700964 -99.578125 115.72265625 C-97.91700348 114.61272505 -96.26036824 113.49603522 -94.609375 112.37109375 C-91.41388352 110.20272453 -88.3623622 108.17393386 -84.875 106.5 C-81.83051832 104.91157478 -79.61865364 103.09097986 -77.06640625 100.82421875 C-74.50210749 98.56046162 -71.88369654 96.37010227 -69.25 94.1875 C-68.32703125 93.41792969 -67.4040625 92.64835937 -66.453125 91.85546875 C-64 90 -64 90 -61 89 C-60.71125 88.401875 -60.4225 87.80375 -60.125 87.1875 C-58.63360602 84.28756725 -56.57892183 82.96489282 -54 81 C-53.278125 80.2575 -52.55625 79.515 -51.8125 78.75 C-50 77 -50 77 -48 77 C-47.77183594 76.28972656 -47.54367187 75.57945312 -47.30859375 74.84765625 C-45.72402572 71.399447 -43.66852024 69.18893693 -41.0625 66.4375 C-37.51221662 62.69253324 -37.51221662 62.69253324 -34.30859375 58.66015625 C-33.87675781 58.11230469 -33.44492187 57.56445312 -33 57 C-32.34 57 -31.68 57 -31 57 C-30.79375 56.175 -30.5875 55.35 -30.375 54.5 C-28.93427952 50.8327115 -27.18017171 48.46512746 -24.77734375 45.3984375 C-19.12376644 37.76921449 -14.53764763 29.32715263 -10 21 C-8.09275574 17.5975294 -6.16524026 14.24786039 -4 11 C-3.40936404 8.69898075 -2.99209054 6.39449232 -2.5625 4.05859375 C-2 2 -2 2 0 0 Z " fill="#F0DA75" transform="translate(462,327)"/>
<path d="M0 0 C0.99 0.33 1.98 0.66 3 1 C-0.59684578 5.65549188 -3.5144615 8.6000769 -9 11 C-9.928125 11.61875 -10.85625 12.2375 -11.8125 12.875 C-21.62627737 19.41751825 -21.62627737 19.41751825 -26.1171875 20.51953125 C-28.26413387 20.92962513 -28.26413387 20.92962513 -30.5 23 C-33 25 -33 25 -34.8671875 25.40234375 C-37.71368963 26.19998995 -39.35744937 27.67533653 -41.625 29.5625 C-47 34 -47 34 -49.04907227 35.55224609 C-56.54400314 41.30688229 -63.12420286 47.85322752 -69.76000977 54.55419922 C-71.68907218 56.50158712 -73.62608608 58.44078398 -75.56445312 60.37890625 C-86.59675834 70.69633031 -86.59675834 70.69633031 -95 83 C-96.12174481 84.66234472 -97.26949964 86.30732315 -98.4375 87.9375 C-101.37656425 92.04457251 -104.09331105 96.14344645 -106.3125 100.6875 C-107.8040027 103.61526456 -109.35839827 106.46705701 -111 109.3125 C-111.495 110.17488281 -111.99 111.03726563 -112.5 111.92578125 C-114 114 -114 114 -117 115 C-116.48961488 110.30997455 -115.27115023 107.38548641 -112.625 103.5 C-110.13231138 99.75079284 -107.97551668 96.04980919 -106 92 C-105.46375 91.319375 -104.9275 90.63875 -104.375 89.9375 C-102.81331296 88.05874436 -102.81331296 88.05874436 -102.6875 85.5625 C-101.83623278 82.3895949 -100.29501999 81.50747913 -97.74609375 79.58203125 C-94.82325239 76.93381928 -92.85452597 73.6200276 -90.6640625 70.36328125 C-88.70846384 67.5859639 -86.4636899 65.33051747 -84 63 C-83.401875 62.21625 -82.80375 61.4325 -82.1875 60.625 C-79.67511633 57.6101396 -76.86533332 55.23601229 -73.8828125 52.69921875 C-71.83826358 50.94899822 -71.83826358 50.94899822 -69.875 48.3125 C-67.59588363 45.5015898 -65.02099942 43.97289758 -62 42 C-60.31288577 40.3540349 -58.6454378 38.68762851 -57 37 C-52.52379397 33.26850789 -47.76695934 29.96066906 -42.99609375 26.62304688 C-40.09875806 24.5762194 -37.49485787 22.50949047 -35 20 C-33.63093236 19.1628975 -32.23188061 18.37362907 -30.8125 17.625 C-27.02361171 15.58862681 -23.409368 13.39069243 -19.82421875 11.015625 C-17.89227412 9.94002414 -16.13919127 9.51269873 -14 9 C-13.360625 8.505 -12.72125 8.01 -12.0625 7.5 C-10 6 -10 6 -7.5625 5.625 C-3.99317484 4.75443289 -2.40672 2.68177372 0 0 Z " fill="#EED561" transform="translate(174,47)"/>
<path d="M0 0 C0.99 0.99 0.99 0.99 2 2 C1.54625 2.86625 1.0925 3.7325 0.625 4.625 C-1.28746253 8.59703757 -2.56810837 12.61177691 -3.875 16.8125 C-6.00831584 22.85689488 -8.58562188 28.56803481 -12 34 C-12.6837045 35.32467746 -13.34964186 36.65863633 -14 38 C-15.54304955 41.15039284 -17.05193851 44.07790776 -19 47 C-19.29519531 47.61488281 -19.59039062 48.22976563 -19.89453125 48.86328125 C-22.33950101 53.58907086 -25.82463168 57.74686068 -29 62 C-29.87398438 63.17175781 -29.87398438 63.17175781 -30.765625 64.3671875 C-41.72075925 78.75220023 -55.30141873 94.40858258 -70.96875 103.734375 C-74.48127654 105.92294923 -77.72965426 108.46896114 -81 111 C-81 110.01 -81 109.02 -81 108 C-78.6875 106 -78.6875 106 -76 104 C-74.9805881 103.01979625 -73.97753644 102.02196992 -73 101 C-70.80553736 98.74812409 -68.50874424 96.67483454 -66.125 94.625 C-62.9515121 91.86118054 -59.94028363 89.01379072 -57 86 C-55.66803209 84.66530264 -54.33457769 83.33208781 -53 82 C-52.30777344 81.30648437 -51.61554688 80.61296875 -50.90234375 79.8984375 C-49.46527954 78.46432414 -48.01661094 77.04182604 -46.5625 75.625 C-40.12895958 69.03454396 -34.36956824 62.38051159 -29.125 54.8125 C-28.66077637 54.14758545 -28.19655273 53.4826709 -27.71826172 52.79760742 C-24.92252843 48.68271735 -22.92209163 44.60657716 -21 40 C-19.87486641 38.16142942 -18.70909539 36.34697631 -17.5 34.5625 C-14.60631792 30.13326992 -12.61271553 26.02787784 -11 21 C-10.34 21 -9.68 21 -9 21 C-8.79503906 20.36191406 -8.59007812 19.72382813 -8.37890625 19.06640625 C-8.10949219 18.24011719 -7.84007812 17.41382813 -7.5625 16.5625 C-7.29566406 15.73878906 -7.02882813 14.91507812 -6.75390625 14.06640625 C-6 12 -6 12 -5 11 C-5.0825 9.906875 -5.165 8.81375 -5.25 7.6875 C-5 4 -5 4 -2.5 1.5625 C-1.2625 0.7890625 -1.2625 0.7890625 0 0 Z " fill="#F0D96F" transform="translate(454,317)"/>
<path d="M0 0 C0.66 0.33 1.32 0.66 2 1 C1.54625 1.556875 1.0925 2.11375 0.625 2.6875 C-1.05037633 5.0716894 -1.98028612 7.28076299 -3 10 C-4.19069301 12.53022264 -5.43682141 14.65523212 -7 17 C-6.67 17.66 -6.34 18.32 -6 19 C-6.639375 19.9075 -7.27875 20.815 -7.9375 21.75 C-10.06120874 25.09645014 -10.78885677 27.04286469 -11.203125 30.8828125 C-11.63281883 34.76438012 -12.19901381 37.51058925 -14 41 C-14.37238718 43.32741989 -14.69836866 45.66235715 -15 48 C-15.32391817 49.60609428 -15.65790327 51.2101793 -16 52.8125 C-17.23857167 58.8952631 -17.79735644 64.96785186 -18.2109375 71.15625 C-18.28570312 72.2184375 -18.36046875 73.280625 -18.4375 74.375 C-18.49808594 75.35210937 -18.55867188 76.32921875 -18.62109375 77.3359375 C-19.0021062 80.01480851 -19.77420454 81.62472319 -21 84 C-21.44811137 86.35564596 -21.44811137 86.35564596 -21.625 88.75 C-21.69976562 89.54921875 -21.77453125 90.3484375 -21.8515625 91.171875 C-21.90054688 91.77515625 -21.94953125 92.3784375 -22 93 C-22.33 93 -22.66 93 -23 93 C-23.20010711 89.22972796 -23.38270332 85.45879083 -23.5625 81.6875 C-23.61857422 80.63498047 -23.67464844 79.58246094 -23.73242188 78.49804688 C-24.01420642 72.39271514 -23.92696571 66.52362687 -23.23413086 60.44848633 C-22.95425846 57.96642132 -22.95425846 57.96642132 -23.02172852 55.3269043 C-22.99504688 52.46957051 -22.08276308 50.64675419 -21 48 C-19.87652108 43.71623147 -19.05794019 39.456279 -18.5 35.0625 C-18 32 -18 32 -16 30 C-15.46255116 28.43548925 -14.99099835 26.84779044 -14.5625 25.25 C-13.42388469 21.21837232 -11.87438702 17.74877405 -10 14 C-10 12.68 -10 11.36 -10 10 C-7.8125 7.421875 -7.8125 7.421875 -5 4.75 C-4.071875 3.85796875 -3.14375 2.9659375 -2.1875 2.046875 C-1.1046875 1.03367188 -1.1046875 1.03367188 0 0 Z " fill="#EDD356" transform="translate(58,162)"/>
<path d="M0 0 C0.66 0 1.32 0 2 0 C-0.15498715 7.82600595 -3.63938483 14.65479782 -8.61328125 21.0859375 C-10.21115252 23.10411553 -10.21115252 23.10411553 -11.1875 26.3125 C-13.0973981 31.10800502 -17.0288877 33.89668421 -21 37 C-21 33.05719827 -19.59849678 31.75347198 -17.25 28.625 C-16.20585937 27.22121094 -16.20585937 27.22121094 -15.140625 25.7890625 C-13.72991466 23.9510202 -12.29010675 22.13489712 -10.8203125 20.34375 C-9.02414127 18.03108318 -8.00083911 15.8219466 -6.92578125 13.11328125 C-4.94212872 8.58519679 -2.40953681 4.31221312 0 0 Z M-23 37 C-22 40 -22 40 -23.3125 42.6875 C-23.869375 43.450625 -24.42625 44.21375 -25 45 C-25.66 45 -26.32 45 -27 45 C-27.66 46.32 -28.32 47.64 -29 49 C-29.66 49 -30.32 49 -31 49 C-31.25974609 49.74725342 -31.51949219 50.49450684 -31.78710938 51.2644043 C-33.0312354 54.07044942 -34.24686374 55.62078095 -36.40625 57.76953125 C-37.39818359 58.76049805 -37.39818359 58.76049805 -38.41015625 59.77148438 C-39.09980469 60.44501953 -39.78945313 61.11855469 -40.5 61.8125 C-41.18964844 62.50537109 -41.87929688 63.19824219 -42.58984375 63.91210938 C-47.73287408 69 -47.73287408 69 -50 69 C-50.38671875 69.87398438 -50.38671875 69.87398438 -50.78125 70.765625 C-52.09834017 73.1802903 -53.55088384 74.81740177 -55.5 76.75 C-56.41265625 77.67039062 -56.41265625 77.67039062 -57.34375 78.609375 C-59 80 -59 80 -61 80 C-61.33 80.99 -61.66 81.98 -62 83 C-63.31647119 83.69937532 -64.65022151 84.36729133 -66 85 C-66.495 85.99 -66.495 85.99 -67 87 C-68.75682725 88.02215403 -70.51600076 89.04195448 -72.30859375 90 C-74.1742223 91.00834563 -74.1742223 91.00834563 -76 93 C-79.5 94.5 -79.5 94.5 -83 96 C-83.66 96.66 -84.32 97.32 -85 98 C-87.57370453 99.06179738 -90.13465889 100.05322777 -92.75 101 C-93.80574219 101.39058594 -93.80574219 101.39058594 -94.8828125 101.7890625 C-98.89848719 103.26695021 -102.93255209 104.66976546 -107 106 C-103.91297126 102.63163524 -100.2498917 101.21991646 -96.125 99.4375 C-88.89748018 96.19550708 -83.00346079 92.35566761 -76.9296875 87.296875 C-74.74850035 85.58682427 -72.82989051 84.26776243 -70.44140625 82.9375 C-62.92502764 78.70580444 -56.77212444 72.90970214 -50.80859375 66.7421875 C-48.43929768 64.45988502 -45.73190603 62.82127068 -43 61 C-41.7537741 59.59400155 -40.5099077 58.18320271 -39.34765625 56.70703125 C-35.90763678 52.34967326 -32.21910839 48.19140138 -28.25 44.3125 C-26.02185667 42.0224638 -24.51927183 39.79865863 -23 37 Z " fill="#EBCC3F" transform="translate(440,336)"/>
<path d="M0 0 C1 3 1 3 1 6 C1.33 6.66 1.66 7.32 2 8 C1.360625 8.9075 0.72125 9.815 0.0625 10.75 C-1.68661915 13.50618775 -2.40702707 14.93630652 -3 18 C-3.33 18.78375 -3.66 19.5675 -4 20.375 C-5.10055329 23.26395238 -5.56324725 25.94273073 -6 29 C-6.165 29.928125 -6.33 30.85625 -6.5 31.8125 C-6.88363427 34.25816848 -7.18488789 36.66535575 -7.4375 39.125 C-7.94093257 43.855668 -8.72619863 48.52275495 -9.52734375 53.2109375 C-10.52841319 59.11807455 -11.26988283 65.0547602 -12 71 C-13.485 71.495 -13.485 71.495 -15 72 C-15.89337655 65.41650207 -15.91309852 59.56078198 -15 53 C-14.84918715 51.37545457 -14.70350698 49.75042591 -14.5625 48.125 C-13.8620537 40.99823685 -12.40294984 34.01474922 -11 27 C-10.855625 26.21625 -10.71125 25.4325 -10.5625 24.625 C-8.74350658 16.13636405 -6.31139533 6.31139533 0 0 Z " fill="#EDD254" transform="translate(64,180)"/>
<path d="M0 0 C0.66 0 1.32 0 2 0 C3.06694893 10.16141836 3.06694893 10.16141836 0.6875 14.26171875 C-0.49406135 15.56196371 -1.72040887 16.82267625 -2.984375 18.04296875 C-5.87646938 20.85099062 -8.13076074 24.07645391 -10.51953125 27.3125 C-11.00808594 27.869375 -11.49664062 28.42625 -12 29 C-12.66 29 -13.32 29 -14 29 C-14.22429687 29.71542969 -14.44859375 30.43085938 -14.6796875 31.16796875 C-16.29609511 34.63511526 -18.3740545 36.6673601 -21.125 39.3125 C-22.03507812 40.19550781 -22.94515625 41.07851563 -23.8828125 41.98828125 C-24.58148438 42.65214844 -25.28015625 43.31601562 -26 44 C-26.66 43.67 -27.32 43.34 -28 43 C-25.46763795 35.01331969 -23.22226572 29.5827598 -17.125 23.875 C-16.60808594 23.37613281 -16.09117187 22.87726563 -15.55859375 22.36328125 C-14.5365625 21.37729141 -13.50963352 20.39634955 -12.47753906 19.42089844 C-11.05069036 18.04874718 -9.6763472 16.62263375 -8.3046875 15.1953125 C-6 13 -6 13 -3 12 C-0.97135902 8.26302978 -0.90485 5.18660003 -1 1 C-0.67 0.67 -0.34 0.34 0 0 Z " fill="#88640F" transform="translate(436,426)"/>
<path d="M0 0 C0.66 0.66 1.32 1.32 2 2 C1.54625 2.86625 1.0925 3.7325 0.625 4.625 C-1.28746253 8.59703757 -2.56810837 12.61177691 -3.875 16.8125 C-4.81998249 19.48995039 -5.79909042 22.12326763 -6.875 24.75 C-7.18179687 25.50796875 -7.48859375 26.2659375 -7.8046875 27.046875 C-9 29 -9 29 -11.0078125 29.890625 C-13.99997923 31.55685118 -14.04128357 33.77901594 -15 37 C-16.22309119 39.42458253 -17.46873277 41.77150937 -18.8125 44.125 C-19.14314453 44.73214844 -19.47378906 45.33929688 -19.81445312 45.96484375 C-22.0276879 49.86455492 -24.33534889 52.42898823 -28 55 C-25.14603123 47.69074061 -21.68510503 40.9358364 -17.375 34.375 C-14.52875461 30.01571784 -12.58748931 25.94923138 -11 21 C-10.34 21 -9.68 21 -9 21 C-8.69255859 20.04287109 -8.69255859 20.04287109 -8.37890625 19.06640625 C-8.10949219 18.24011719 -7.84007812 17.41382813 -7.5625 16.5625 C-7.29566406 15.73878906 -7.02882813 14.91507812 -6.75390625 14.06640625 C-6 12 -6 12 -5 11 C-5.0825 9.906875 -5.165 8.81375 -5.25 7.6875 C-5 4 -5 4 -2.5 1.5625 C-1.675 1.046875 -0.85 0.53125 0 0 Z " fill="#EED562" transform="translate(454,317)"/>
<path d="M0 0 C-1.62339805 1.70884005 -3.29319053 3.37446717 -5 5 C-5.66 5 -6.32 5 -7 5 C-7.20625 5.5775 -7.4125 6.155 -7.625 6.75 C-9.16428557 9.26883093 -10.81509236 10.21378847 -13.2890625 11.734375 C-16.07535138 13.7954654 -18.11803569 16.47036301 -20.3359375 19.11328125 C-22.34099201 21.3866177 -24.61877488 23.13363437 -27 25 C-27.721875 25.9075 -28.44375 26.815 -29.1875 27.75 C-29.785625 28.4925 -30.38375 29.235 -31 30 C-31.66 30 -32.32 30 -33 30 C-33.25523438 30.55171875 -33.51046875 31.1034375 -33.7734375 31.671875 C-35.19302074 34.36637058 -36.86132254 36.76778728 -38.625 39.25 C-39.25664063 40.14203125 -39.88828125 41.0340625 -40.5390625 41.953125 C-41.02117187 42.62859375 -41.50328125 43.3040625 -42 44 C-42.495 42.515 -42.495 42.515 -43 41 C-42.3503125 40.4121875 -42.3503125 40.4121875 -41.6875 39.8125 C-39.71226962 37.69095626 -38.47108847 35.50629887 -37 33 C-33.62221067 27.34910716 -30.16875981 22.94583743 -25.08203125 18.75390625 C-21.49720362 15.73404207 -18.27996385 12.34331079 -15 9 C-13.33333333 7.33333333 -11.66666667 5.66666667 -10 4 C-9.505 3.443125 -9.01 2.88625 -8.5 2.3125 C-5.8976916 0.03548015 -3.23284651 -1.61642326 0 0 Z " fill="#ECD151" transform="translate(120,82)"/>
<path d="M0 0 C0.66 0.33 1.32 0.66 2 1 C0.00125836 2.85553912 -1.99878822 4.7096275 -4 6.5625 C-4.59941406 7.11824707 -5.19882813 7.67399414 -5.81640625 8.24658203 C-8.82476311 11.02671312 -11.85362791 13.75076294 -15 16.375 C-22.73531206 23.05249161 -29.67460061 30.99529104 -36 39 C-38.82989367 41.97138836 -41.64262569 44.63740327 -45 47 C-43.29773477 43.11046659 -40.77269793 39.89394064 -38.1875 36.5625 C-37.76146484 36.00240234 -37.33542969 35.44230469 -36.89648438 34.86523438 C-34.15156283 31.30638753 -31.23191984 28.13587467 -28 25 C-26.84658454 23.82785197 -25.69573993 22.65317102 -24.546875 21.4765625 C-18.02246629 14.8419182 -11.6197463 8.39393555 -4 3 C-2.66471173 2.0026119 -1.33085049 1.00330192 0 0 Z " fill="#EFD96D" transform="translate(129,89)"/>
<path d="M0 0 C0.495 0.99 0.495 0.99 1 2 C0.319375 2.556875 0.319375 2.556875 -0.375 3.125 C-2.47029394 5.54264685 -3.12013285 7.95430602 -4 11 C-4.66 11 -5.32 11 -6 11 C-6.268125 12.093125 -6.53625 13.18625 -6.8125 14.3125 C-8.39583333 19.22916667 -8.39583333 19.22916667 -11 21 C-11.99 21 -12.98 21 -14 21 C-14 21.66 -14 22.32 -14 23 C-14.66 23 -15.32 23 -16 23 C-16.103125 23.53625 -16.20625 24.0725 -16.3125 24.625 C-18.79397764 33.19737731 -24.42681968 38.6569346 -30.99609375 44.25390625 C-33.80831639 46.70432247 -36.39593512 49.3308335 -39 52 C-39.66 51.67 -40.32 51.34 -41 51 C-40.55269531 50.56429687 -40.10539062 50.12859375 -39.64453125 49.6796875 C-36.66689863 46.74649716 -33.79481674 43.83335543 -31.1875 40.5625 C-30.465625 39.716875 -29.74375 38.87125 -29 38 C-28.34 38 -27.68 38 -27 38 C-26.7525 37.2575 -26.505 36.515 -26.25 35.75 C-25 33 -25 33 -23.125 31.1875 C-20.62867609 28.6177548 -19.50776624 26.07641119 -18.125 22.8046875 C-16.73348678 20.57246838 -15.34598997 20.08716609 -13 19 C-12.19471111 16.94999129 -12.19471111 16.94999129 -12 15 C-11.34 15 -10.68 15 -10 15 C-10 14.01 -10 13.02 -10 12 C-9.34 12 -8.68 12 -8 12 C-7.79375 11.319375 -7.5875 10.63875 -7.375 9.9375 C-5.54591134 6.02990149 -2.89720966 3.16142061 0 0 Z " fill="#EFD769" transform="translate(444,368)"/>
<path d="M0 0 C0.556875 0.2475 1.11375 0.495 1.6875 0.75 C-1.90329877 3.44309908 -5.30982788 5.83882081 -9.375 7.75 C-12.11578442 9.04882434 -14.28446126 10.43489163 -16.5625 12.4375 C-19.18700827 14.64447286 -20.1269448 15.13344093 -23.3125 15.75 C-24.1375 16.28625 -24.9625 16.8225 -25.8125 17.375 C-28.78214789 19.00830634 -29.21986225 18.61980437 -32.3125 17.75 C-35.01715742 18.61454438 -35.01715742 18.61454438 -37.3125 19.75 C-37.3125 19.09 -37.3125 18.43 -37.3125 17.75 C-28.50932573 12.50239352 -20.13946892 7.93547461 -10.30078125 4.91796875 C-7.18972857 3.8832311 -7.18972857 3.8832311 -4.66796875 1.55078125 C-2.3125 -0.25 -2.3125 -0.25 0 0 Z " fill="#ECD151" transform="translate(362.3125,429.25)"/>
<path d="M0 0 C0.33 0 0.66 0 1 0 C1.40995932 5.05616491 0.18559391 9.17893829 -1.1953125 13.97265625 C-3.91506593 22.57536247 -3.91506593 22.57536247 -3 31 C-3.25468021 32.46953406 -3.5790809 33.92726794 -3.9375 35.375 C-5.01025396 40.33827499 -5.10223645 44.95489758 -5.00390625 50.015625 C-4.99818994 54.38288877 -5.46357316 58.6702691 -6 63 C-6.33 63 -6.66 63 -7 63 C-7.20010711 59.22972796 -7.38270332 55.45879083 -7.5625 51.6875 C-7.61857422 50.63498047 -7.67464844 49.58246094 -7.73242188 48.49804688 C-8.01420642 42.39271514 -7.92696571 36.52362687 -7.23413086 30.44848633 C-6.95425846 27.96642132 -6.95425846 27.96642132 -7.02172852 25.3269043 C-6.99504688 22.46957051 -6.08276308 20.64675419 -5 18 C-3.87652108 13.71623147 -3.05794019 9.456279 -2.5 5.0625 C-2 2 -2 2 0 0 Z " fill="#EBCF48" transform="translate(42,192)"/>
<path d="M0 0 C0.79921875 0.00902344 1.5984375 0.01804688 2.421875 0.02734375 C3.02515625 0.03894531 3.6284375 0.05054688 4.25 0.0625 C4.25 0.7225 4.25 1.3825 4.25 2.0625 C-2.67827147 4.14514673 -9.50393425 5.57330417 -16.6640625 6.59375 C-20.7463225 7.21384013 -24.73322634 8.11885047 -28.75 9.0625 C-30.41534667 9.40236667 -32.08129513 9.73952486 -33.75 10.0625 C-33.1875 8.125 -33.1875 8.125 -31.75 6.0625 C-28.4375 5.4375 -28.4375 5.4375 -24.75 5.0625 C-23.57050781 4.58876953 -23.57050781 4.58876953 -22.3671875 4.10546875 C-19.62491579 3.01265301 -17.0956233 2.48131665 -14.1875 2 C-10.42036107 1.37758862 -10.42036107 1.37758862 -6.70703125 0.5078125 C-4.4191062 -0.0127932 -2.34358749 -0.03446452 0 0 Z " fill="#ECD14E" transform="translate(224.75,35.9375)"/>
<path d="M0 0 C2.475 0.99 2.475 0.99 5 2 C6.18864356 10.88270122 6.06680249 17.30169189 1 25 C-0.51663081 26.64760066 -2.08091699 28.25248462 -3.6875 29.8125 C-4.49574219 30.60269531 -5.30398438 31.39289063 -6.13671875 32.20703125 C-6.75160156 32.79871094 -7.36648438 33.39039063 -8 34 C-8 29.87740602 -6.28960923 28.96180733 -3.5 26 C0.70339681 21.03234922 1.93368718 17.95500757 1.4140625 11.5078125 C0.99857401 8.99136333 0.52767618 6.49528226 0 4 C-0.99 3.67 -1.98 3.34 -3 3 C-2.01 2.01 -1.02 1.02 0 0 Z " fill="#C2921F" transform="translate(441,419)"/>
<path d="M0 0 C0.66 0.33 1.32 0.66 2 1 C1.41863785 1.57803123 1.41863785 1.57803123 0.82553101 2.16773987 C-3.23349379 6.20452028 -7.28889824 10.24491224 -11.34228516 14.28735352 C-12.85244016 15.79250159 -14.36349424 17.29674818 -15.87548828 18.80004883 C-18.05742613 20.96976092 -20.23603478 23.1427699 -22.4140625 25.31640625 C-23.08305573 25.98023819 -23.75204895 26.64407013 -24.4413147 27.32801819 C-28.50812478 31.39434848 -32.30982638 35.5882701 -36 40 C-36 36.30140804 -35.20155611 35.77226857 -32.75 33.125 C-32.10804687 32.41859375 -31.46609375 31.7121875 -30.8046875 30.984375 C-30.20914063 30.32953125 -29.61359375 29.6746875 -29 29 C-27.65705519 27.34106818 -26.32255312 25.67523395 -25 24 C-19.8868975 17.70695077 -14.58192228 12.61586734 -8.15625 7.7109375 C-5.5442287 5.63835538 -3.28297424 3.42566012 -1 1 C-0.67 0.67 -0.34 0.34 0 0 Z " fill="#EFD96E" transform="translate(118,85)"/>
<path d="M0 0 C0 3 0 3 0 3 Z M-3 3 C-2.34 3.33 -1.68 3.66 -1 4 C-1.56847656 4.68964844 -2.13695312 5.37929688 -2.72265625 6.08984375 C-7.12885497 11.45231264 -11.45798401 16.8404465 -15.58984375 22.41796875 C-16.05519531 22.94003906 -16.52054687 23.46210938 -17 24 C-17.66 24 -18.32 24 -19 24 C-19.2475 24.61875 -19.495 25.2375 -19.75 25.875 C-21.22047178 28.37480203 -22.41403076 28.83316022 -25 30 C-22.13558171 21.40674514 -16.91972173 16.43063169 -10.46923828 10.38867188 C-8.26574947 8.30601246 -6.13417778 6.15326703 -4 4 C-3.67 3.67 -3.34 3.34 -3 3 Z " fill="#725309" transform="translate(434,435)"/>
<path d="M0 0 C-2.26748746 2.60761058 -3.7171441 3.17928603 -7 4 C-8.18016323 4.64247204 -9.34582468 5.31193395 -10.5 6 C-13.01313013 7.48965922 -15.12480485 8.40513204 -18 9 C-19.35085807 9.63040043 -20.68252676 10.30251417 -22 11 C-24 12 -26 13 -28 14 C-28.66 13.01 -29.32 12.02 -30 11 C-25.60705496 6.98359311 -25.60705496 6.98359311 -22.6875 7.0625 C-19.61440766 6.99103274 -18.80281184 6.37771165 -16.3125 4.6875 C-12.13158901 1.89226237 -4.91515093 -2.45757546 0 0 Z " fill="#EBCE45" transform="translate(375,445)"/>
<path d="M0 0 C1.49341969 2.98683937 0.40648676 4.95160978 -0.4375 8.125 C-0.72496094 9.22070312 -1.01242187 10.31640625 -1.30859375 11.4453125 C-1.53675781 12.28835938 -1.76492188 13.13140625 -2 14 C-2.66 14 -3.32 14 -4 14 C-4 15.65 -4 17.3 -4 19 C-4.66 19 -5.32 19 -6 19 C-6 20.32 -6 21.64 -6 23 C-6.66 23 -7.32 23 -8 23 C-8.33 24.32 -8.66 25.64 -9 27 C-10.6156651 23.76866981 -9.7953966 21.46565662 -9 18 C-7.88671875 16.30078125 -7.88671875 16.30078125 -6.5625 14.625 C-3.87867973 11.2239519 -3.12091179 8.15659067 -2.45703125 3.91796875 C-2 2 -2 2 0 0 Z M-11 27 C-10.67 27 -10.34 27 -10 27 C-10.33 29.31 -10.66 31.62 -11 34 C-11.66 34 -12.32 34 -13 34 C-13.66 36.31 -14.32 38.62 -15 41 C-15.66 41 -16.32 41 -17 41 C-16.41162314 36.29298514 -14.44104424 30.44104424 -11 27 Z " fill="#EFD769" transform="translate(462,327)"/>
<path d="M0 0 C3.43918855 3.66076092 3.91503162 7.47167102 4.6875 12.25 C4.81705078 12.99507813 4.94660156 13.74015625 5.08007812 14.5078125 C5.39664262 16.33685178 5.69967399 18.16822435 6 20 C-4.95060123 9.08677283 -4.95060123 9.08677283 -5.125 5.25 C-3.81550873 2.63101746 -2.47640864 1.51779884 0 0 Z " fill="#010000" transform="translate(378,470)"/>
<path d="M0 0 C1.3844761 3.84576695 0.59624729 7.02501804 0 11 C0 12.3959888 0.02092474 13.79213044 0.0625 15.1875 C0.00290449 18.82282611 -0.3341405 19.98062966 -2 23 C-2 23.804375 -2 24.60875 -2 25.4375 C-2 28.44981473 -2.62856693 30.32931455 -4 33 C-4.99 33.66 -5.98 34.32 -7 35 C-6.7834375 33.2365625 -6.7834375 33.2365625 -6.5625 31.4375 C-6.47355469 30.70789063 -6.38460938 29.97828125 -6.29296875 29.2265625 C-6.03271717 27.24865047 -5.7083743 25.27940835 -5.375 23.3125 C-4.80768259 20.14805454 -4.80768259 20.14805454 -5.625 17.74609375 C-6.14861979 13.91166963 -4.98620109 11.34477414 -3.625 7.75 C-3.39039063 7.11320312 -3.15578125 6.47640625 -2.9140625 5.8203125 C-1.17426658 1.17426658 -1.17426658 1.17426658 0 0 Z " fill="#ECCF4A" transform="translate(475,287)"/>
<path d="M0 0 C1.32 0 2.64 0 4 0 C6.37225543 5.45716373 7.51719649 10.13300865 6 16 C2.93407908 20.82071061 -1.87462974 26.43731487 -7 29 C-5.72032507 23.88130027 -4.02790638 22.22232511 0 19 C2.74187723 13.64681113 2.18781501 7.86400213 2 2 C1.01 1.67 0.02 1.34 -1 1 C-0.67 0.67 -0.34 0.34 0 0 Z " fill="#B5881C" transform="translate(437,423)"/>
<path d="M0 0 C0.66 0.33 1.32 0.66 2 1 C1.49210937 1.36351562 0.98421875 1.72703125 0.4609375 2.1015625 C-2.92154348 4.57191377 -6.09312199 6.97775201 -8.9375 10.0625 C-13.5540893 14.86829377 -19.79326591 17.75867936 -26 20 C-26.928125 20.37125 -27.85625 20.7425 -28.8125 21.125 C-29.534375 21.41375 -30.25625 21.7025 -31 22 C-29.55084819 18.20000193 -27.90876983 17.14090283 -24.25 15.5 C-20.23554773 13.61696196 -16.64492687 11.54297223 -13 9 C-12.175 8.525625 -11.35 8.05125 -10.5 7.5625 C-8.42242037 6.26401273 -6.67437252 4.9483499 -4.8125 3.375 C-2 1 -2 1 0 0 Z " fill="#EED766" transform="translate(379,419)"/>
<path d="M0 0 C0.66 0.66 1.32 1.32 2 2 C1.3503125 3.051875 1.3503125 3.051875 0.6875 4.125 C-0.46388222 6.08661415 -1.54528703 8.09057406 -2.5625 10.125 C-4 13 -4 13 -6 16 C-6.29132813 16.6084375 -6.58265625 17.216875 -6.8828125 17.84375 C-8.30780195 20.59407929 -10.05228798 22.99635028 -11.875 25.5 C-12.89207031 26.90765625 -12.89207031 26.90765625 -13.9296875 28.34375 C-15.81634323 30.7643649 -17.77863796 32.88821187 -20 35 C-18.05567942 29.34379467 -14.89270674 24.25903708 -11.0625 19.6875 C-6.49757431 13.73926349 -3.27436665 6.73064255 0 0 Z " fill="#F1DC79" transform="translate(441,348)"/>
<path d="M0 0 C0.33 0.99 0.66 1.98 1 3 C0.34 2.67 -0.32 2.34 -1 2 C-0.67 1.34 -0.34 0.68 0 0 Z M-2 3 C-2 6 -2 6 -2 6 Z M-4 6 C-4 10.09997329 -5.65135355 11.38162426 -8.25 14.5 C-9.03890625 15.4590625 -9.8278125 16.418125 -10.640625 17.40625 C-12.65437121 19.62003723 -14.53607079 21.32724072 -17 23 C-15.2703384 18.79046213 -12.31793255 15.64856424 -9.375 12.25 C-8.859375 11.64800781 -8.34375 11.04601562 -7.8125 10.42578125 C-6.54530865 8.94739134 -5.27314225 7.47326829 -4 6 Z M-18 23 C-18 26 -18 26 -19.3125 27.375 C-19.869375 27.91125 -20.42625 28.4475 -21 29 C-21.495 29.886875 -21.99 30.77375 -22.5 31.6875 C-22.995 32.450625 -23.49 33.21375 -24 34 C-24.99 34 -25.98 34 -27 34 C-25.2034488 29.75360625 -22.18376817 25.09188408 -18 23 Z " fill="#7E5C0C" transform="translate(435,435)"/>
<path d="M0 0 C0.66 0.66 1.32 1.32 2 2 C1.2884375 3.0828125 1.2884375 3.0828125 0.5625 4.1875 C-0.99044521 6.98280137 -1.42219613 8.89430419 -2 12 C-2.91810568 14.69934066 -3.96262662 17.34475414 -5 20 C-5.33 20.94875 -5.66 21.8975 -6 22.875 C-7 25 -7 25 -10 27 C-9.56291409 21.86424053 -8.24736077 18.00489638 -6.0546875 13.35546875 C-4.40448665 9.67002019 -3.20167666 5.85082747 -2 2 C-1.34 2 -0.68 2 0 2 C0 1.34 0 0.68 0 0 Z " fill="#EBCE46" transform="translate(465,331)"/>
<path d="M0 0 C0 4.1748954 -1.90027916 7.23459197 -3.75 10.875 C-4.09804688 11.58269531 -4.44609375 12.29039062 -4.8046875 13.01953125 C-6.84008698 17.06771466 -9.00406405 20.55872222 -12 24 C-13 21 -13 21 -11.92578125 18.546875 C-11.12720703 17.16242188 -11.12720703 17.16242188 -10.3125 15.75 C-9.755625 14.77546875 -9.19875 13.8009375 -8.625 12.796875 C-8.08875 11.87390625 -7.5525 10.9509375 -7 10 C-6.608125 9.28328125 -6.21625 8.5665625 -5.8125 7.828125 C-4.17411802 4.83295795 -2.61948791 2.22656472 0 0 Z " fill="#EBCC3F" transform="translate(66,136)"/>
<path d="M0 0 C0 4.19879338 -2.20996811 6.12256952 -5 9 C-6.9660855 10.79248863 -8.97096175 12.52850915 -10.99609375 14.25390625 C-13.80831639 16.70432247 -16.39593512 19.3308335 -19 22 C-19.66 21.67 -20.32 21.34 -21 21 C-20.55269531 20.56429688 -20.10539062 20.12859375 -19.64453125 19.6796875 C-16.66689863 16.74649716 -13.79481674 13.83335543 -11.1875 10.5625 C-10.465625 9.716875 -9.74375 8.87125 -9 8 C-8.34 8 -7.68 8 -7 8 C-6.773125 7.236875 -6.54625 6.47375 -6.3125 5.6875 C-4.73268318 2.45263699 -3.16717283 1.58358642 0 0 Z " fill="#EED45B" transform="translate(424,398)"/>
<path d="M0 0 C0.598125 0.763125 1.19625 1.52625 1.8125 2.3125 C3.84004112 4.91335259 3.84004112 4.91335259 5.75 6.6875 C7 8 7 8 7 10 C5.37433394 9.52309796 3.74948689 9.04340334 2.125 8.5625 C1.22007812 8.29566406 0.31515625 8.02882813 -0.6171875 7.75390625 C-3 7 -3 7 -5 6 C-3.63016497 2.83884224 -3.0109362 2.0072908 0 0 Z " fill="#170900" transform="translate(447,414)"/>
<path d="M0 0 C0.99 0.33 1.98 0.66 3 1 C-0.95186689 6.56188673 -4.47566451 7.82896542 -11 9 C-12.33542939 9.32483418 -13.66961551 9.6550855 -15 10 C-12.03993786 6.54659417 -8.95217191 4.8107977 -4.90234375 2.9296875 C-2.75372487 1.93189747 -2.75372487 1.93189747 0 0 Z " fill="#EDD252" transform="translate(184,60)"/>
<path d="M0 0 C0.66 0.33 1.32 0.66 2 1 C-2.52610396 4.61125316 -6.92622327 7.60946552 -12.1796875 10.05078125 C-14.27379964 11.06328662 -14.27379964 11.06328662 -16.8125 13.3125 C-17.534375 13.869375 -18.25625 14.42625 -19 15 C-19.99 14.67 -20.98 14.34 -22 14 C-18.78455535 10.05377247 -14.89686944 8.37402309 -10.40625 6.234375 C-7.62748408 4.80890417 -5.3755352 3.01560562 -3 1 C-2.01 0.67 -1.02 0.34 0 0 Z " fill="#EFD868" transform="translate(154,73)"/>
<path d="M0 0 C0.66 0.33 1.32 0.66 2 1 C-3.33894831 5.91706956 -8.86467186 10.12281347 -15 14 C-15.66 13.67 -16.32 13.34 -17 13 C-15.33333333 11.33333333 -13.66666667 9.66666667 -12 8 C-11.54367188 7.50628906 -11.08734375 7.01257813 -10.6171875 6.50390625 C-8.70071388 4.72167837 -6.71934455 3.52813369 -4.4375 2.25 C-3.65246094 1.80140625 -2.86742187 1.3528125 -2.05859375 0.890625 C-1.37925781 0.59671875 -0.69992188 0.3028125 0 0 Z " fill="#ECD150" transform="translate(137,67)"/>
<path d="M0 0 C2.475 0.99 2.475 0.99 5 2 C6.33257403 13.52164009 6.33257403 13.52164009 5 19 C4.67 19 4.34 19 4 19 C3.34 14.71 2.68 10.42 2 6 C1.34 6 0.68 6 0 6 C0 5.34 0 4.68 0 4 C-0.99 3.67 -1.98 3.34 -3 3 C-2.01 2.01 -1.02 1.02 0 0 Z " fill="#D09E24" transform="translate(441,419)"/>
<path d="M0 0 C0.33 0.66 0.66 1.32 1 2 C0.690625 2.845625 0.38125 3.69125 0.0625 4.5625 C-1.07720832 8.24979163 -1.08868471 11.04530368 -0.875 14.8515625 C-1.01946433 17.33454314 -1.7636623 18.8653857 -3 21 C-3.66 21 -4.32 21 -5 21 C-4.08300395 4.08300395 -4.08300395 4.08300395 0 0 Z " fill="#ECCF48" transform="translate(54,231)"/>
<path d="M0 0 C0 5.90937131 -5.12543097 11.77319742 -9 16 C-10.95851344 17.39355764 -12.95127113 18.74282547 -15 20 C-14.690625 19.401875 -14.38125 18.80375 -14.0625 18.1875 C-12.89790296 15.91043228 -12.89790296 15.91043228 -12 13 C-11.34 13 -10.68 13 -10 13 C-10 12.34 -10 11.68 -10 11 C-9.236875 10.608125 -8.47375 10.21625 -7.6875 9.8125 C-4.16115132 7.43426484 -3.51419241 4.89363762 -2 1 C-1.34 0.67 -0.68 0.34 0 0 Z " fill="#EDD256" transform="translate(440,378)"/>
<path d="M0 0 C0.66 0.66 1.32 1.32 2 2 C1.360625 2.9075 0.72125 3.815 0.0625 4.75 C-1.69064844 7.51253694 -2.27085189 8.97924352 -3 12 C-3.97227289 13.02697878 -4.97041026 14.03049242 -6 15 C-5.85831863 13.56208484 -5.71148957 12.1246763 -5.5625 10.6875 C-5.48128906 9.88699219 -5.40007813 9.08648437 -5.31640625 8.26171875 C-4.86681236 5.04795505 -4.4934713 3.40374924 -1.9375 1.3125 C-0.9784375 0.6628125 -0.9784375 0.6628125 0 0 Z " fill="#ECCF4A" transform="translate(64,186)"/>
<path d="M0 0 C0.66 0.33 1.32 0.66 2 1 C-1.625 5.875 -1.625 5.875 -5 7 C-3.70700306 4.11562221 -2.34058637 2.12780579 0 0 Z M-7 7 C-6.34 7.33 -5.68 7.66 -5 8 C-7.87494471 11.98069267 -10.82117329 14.43571997 -15 17 C-15.66 16.67 -16.32 16.34 -17 16 C-13.7 13.03 -10.4 10.06 -7 7 Z " fill="#F2DD7F" transform="translate(406,409)"/>
<path d="M0 0 C0.66 0.33 1.32 0.66 2 1 C1.54625 1.556875 1.0925 2.11375 0.625 2.6875 C-1.05037633 5.0716894 -1.98028612 7.28076299 -3 10 C-4.71428571 13.85714286 -4.71428571 13.85714286 -7 15 C-6.96591928 7.33183857 -6.96591928 7.33183857 -4.59765625 4.06640625 C-3.13725418 2.6334941 -1.57450356 1.30650295 0 0 Z " fill="#EED664" transform="translate(58,162)"/>
<path d="M0 0 C0.33 1.32 0.66 2.64 1 4 C0.34 4 -0.32 4 -1 4 C-1.2475 4.66 -1.495 5.32 -1.75 6 C-3.31817045 9.76360907 -5.14505046 13.3711424 -7 17 C-8.00579304 14.35672682 -8.08377402 13.23258313 -7.109375 10.52734375 C-6.66078125 9.67269531 -6.2121875 8.81804687 -5.75 7.9375 C-5.31171875 7.08027344 -4.8734375 6.22304687 -4.421875 5.33984375 C-3.12125426 3.19953654 -1.85425788 1.66337839 0 0 Z " fill="#EDD359" transform="translate(77,152)"/>
<path d="M0 0 C0 3.46132304 -0.35176518 3.74508628 -2.625 6.13671875 C-3.16640625 6.71357422 -3.7078125 7.29042969 -4.265625 7.88476562 C-4.83796875 8.47966797 -5.4103125 9.07457031 -6 9.6875 C-6.57234375 10.29400391 -7.1446875 10.90050781 -7.734375 11.52539062 C-9.1496339 13.02320629 -10.57397277 14.5124329 -12 16 C-12.66 15.67 -13.32 15.34 -14 15 C-4.58997722 4.44191344 -4.58997722 4.44191344 0 0 Z " fill="#684B07" transform="translate(425,444)"/>
<path d="M0 0 C0.33 0.66 0.66 1.32 1 2 C0.4225 2.680625 -0.155 3.36125 -0.75 4.0625 C-2.42770433 6.25283621 -3.70194781 8.17243564 -5 10.5625 C-6.7704801 13.60551268 -8.39704045 15.67592898 -11 18 C-10.50878726 13.57908535 -9.12893119 12.03411509 -6 9 C-5.67 8.175 -5.34 7.35 -5 6.5 C-3.83923607 3.59809017 -2.30259109 2.07233198 0 0 Z " fill="#EDD358" transform="translate(89,134)"/>
<path d="M0 0 C0.66 0.33 1.32 0.66 2 1 C0.27898082 2.32316536 -1.45218093 3.63314524 -3.1875 4.9375 C-4.63189453 6.03384766 -4.63189453 6.03384766 -6.10546875 7.15234375 C-8.88959799 8.92952746 -10.75667585 9.62645444 -14 10 C-11.19533807 7.00618646 -8.38815731 4.8006379 -4.875 2.6875 C-4.00617188 2.15511719 -3.13734375 1.62273438 -2.2421875 1.07421875 C-1.50226563 0.71972656 -0.76234375 0.36523438 0 0 Z " fill="#EDD255" transform="translate(156,57)"/>
<path d="M0 0 C-2.19458816 2.19458816 -3.45683722 2.60806985 -6.375 3.5 C-9.42051297 4.43708091 -12.18179223 5.50725068 -15 7 C-15.33 6.34 -15.66 5.68 -16 5 C-14.60922699 4.17886823 -13.21211107 3.36847505 -11.8125 2.5625 C-11.03519531 2.11003906 -10.25789063 1.65757812 -9.45703125 1.19140625 C-6.18846183 -0.39351215 -3.38227559 -1.6911378 0 0 Z " fill="#EED664" transform="translate(372,442)"/>
<path d="M0 0 C0.33 0.66 0.66 1.32 1 2 C-0.65377822 6.89402974 -3.10660758 11.72880167 -6 16 C-6.33 16 -6.66 16 -7 16 C-7.47618831 11.34866066 -6.07415149 9.00276024 -3.5 5.1875 C-2.8503125 4.21167969 -2.200625 3.23585938 -1.53125 2.23046875 C-1.0259375 1.49441406 -0.520625 0.75835937 0 0 Z " fill="#EFD96F" transform="translate(450,331)"/>
<path d="M0 0 C0.33 0.99 0.66 1.98 1 3 C-1.31 5.31 -3.62 7.62 -6 10 C-6.33 9.34 -6.66 8.68 -7 8 C-5.23772368 4.38269598 -3.35673579 2.19924069 0 0 Z " fill="#A77D17" transform="translate(437,442)"/>
<path d="M0 0 C0.66 0.66 1.32 1.32 2 2 C-1.06093224 5.93548431 -3.49115974 8.68116787 -8 11 C-7.33333333 9.66666667 -6.66666667 8.33333333 -6 7 C-5.71125 6.319375 -5.4225 5.63875 -5.125 4.9375 C-3.77576461 2.61381682 -2.21705385 1.4780359 0 0 Z " fill="#EDD255" transform="translate(456,310)"/>
<path d="M0 0 C2.83374881 3.20336822 3.5205537 5.78087253 4 10 C0.56225537 8.85408512 -0.17413159 8.04311402 -2 5 C-2 3.68 -2 2.36 -2 1 C-1.34 0.67 -0.68 0.34 0 0 Z " fill="#512101" transform="translate(378,470)"/>
<path d="M0 0 C0.66 0.66 1.32 1.32 2 2 C1.401875 2.721875 0.80375 3.44375 0.1875 4.1875 C-2.0352811 6.91314203 -2.0352811 6.91314203 -3.625 9.8125 C-4.07875 10.534375 -4.5325 11.25625 -5 12 C-5.66 12 -6.32 12 -7 12 C-5.44298069 7.32894208 -2.91552627 3.91294315 0 0 Z " fill="#EBCC3F" transform="translate(448,322)"/>
<path d="M0 0 C0.66 0.33 1.32 0.66 2 1 C2.29296875 7.0546875 2.29296875 7.0546875 2 9 C1.01 9.66 0.02 10.32 -1 11 C-0.67 7.37 -0.34 3.74 0 0 Z " fill="#A67D18" transform="translate(440,429)"/>
<path d="M0 0 C1.32 0 2.64 0 4 0 C3.3125 1.9375 3.3125 1.9375 2 4 C-0.625 4.75 -0.625 4.75 -3 5 C-1.125 1.125 -1.125 1.125 0 0 Z " fill="#ECD151" transform="translate(186,44)"/>
<path d="M0 0 C0.99 0.33 1.98 0.66 3 1 C0.06171403 3.50298434 -2.17902761 4.46930939 -6 5 C-2.25 1.125 -2.25 1.125 0 0 Z " fill="#EDD253" transform="translate(166,69)"/>
<path d="M0 0 C0 0.99 0 1.98 0 3 C-2.5 4.6875 -2.5 4.6875 -5 6 C-5 5.01 -5 4.02 -5 3 C-2.5 1.3125 -2.5 1.3125 0 0 Z " fill="#ECCF49" transform="translate(195,58)"/>
<path d="M0 0 C0.33 0.99 0.66 1.98 1 3 C-1.97 5.475 -1.97 5.475 -5 8 C-3.62845496 5.04590299 -2.01136276 2.55991624 0 0 Z " fill="#B8891B" transform="translate(437,445)"/>
<path d="M0 0 C0.66 0.66 1.32 1.32 2 2 C0.02 4.97 0.02 4.97 -2 8 C-2.33 7.34 -2.66 6.68 -3 6 C-2.06553465 3.96855359 -1.06775224 1.96466413 0 0 Z " fill="#EED663" transform="translate(50,179)"/>
</svg>
